<svg width="100" height="45" viewBox="0 0 100 45" fill="none" xmlns="http://www.w3.org/2000/svg">
<rect width="100" height="37" rx="5" fill="#D9D9D9"/>
<path d="M40.003 23.21C39.3216 23.21 38.701 23.098 38.141 22.874C37.581 22.65 37.1003 22.3233 36.699 21.894C36.2976 21.4647 35.985 20.9373 35.761 20.312C35.5463 19.6773 35.439 18.954 35.439 18.142C35.439 17.33 35.5603 16.6113 35.803 15.986C36.055 15.3513 36.391 14.8193 36.811 14.39C37.231 13.9607 37.721 13.634 38.281 13.41C38.841 13.186 39.4383 13.074 40.073 13.074C40.4743 13.074 40.8336 13.102 41.151 13.158C41.4776 13.214 41.7576 13.2793 41.991 13.354C42.2336 13.4287 42.4296 13.5033 42.579 13.578C42.7283 13.6527 42.831 13.7087 42.887 13.746L42.495 14.866C42.411 14.81 42.2896 14.7493 42.131 14.684C41.9723 14.6187 41.7903 14.5533 41.585 14.488C41.389 14.4227 41.1696 14.3713 40.927 14.334C40.6936 14.2873 40.4556 14.264 40.213 14.264C39.6996 14.264 39.2376 14.3527 38.827 14.53C38.4163 14.7073 38.0663 14.964 37.777 15.3C37.4876 15.636 37.2636 16.0467 37.105 16.532C36.9556 17.008 36.881 17.5447 36.881 18.142C36.881 18.7207 36.9463 19.248 37.077 19.724C37.217 20.2 37.4223 20.6107 37.693 20.956C37.9636 21.292 38.2996 21.5533 38.701 21.74C39.1116 21.9267 39.5876 22.02 40.129 22.02C40.7543 22.02 41.2723 21.9547 41.683 21.824C42.0936 21.6933 42.4016 21.5767 42.607 21.474L42.957 22.594C42.8916 22.6407 42.775 22.7013 42.607 22.776C42.439 22.8413 42.229 22.9067 41.977 22.972C41.725 23.0373 41.431 23.0933 41.095 23.14C40.759 23.1867 40.395 23.21 40.003 23.21ZM50.6495 19.36C50.6495 19.9387 50.5655 20.4613 50.3975 20.928C50.2295 21.3947 49.9915 21.796 49.6835 22.132C49.3848 22.468 49.0255 22.7293 48.6055 22.916C48.1855 23.0933 47.7282 23.182 47.2335 23.182C46.7388 23.182 46.2815 23.0933 45.8615 22.916C45.4415 22.7293 45.0775 22.468 44.7695 22.132C44.4708 21.796 44.2375 21.3947 44.0695 20.928C43.9015 20.4613 43.8175 19.9387 43.8175 19.36C43.8175 18.7907 43.9015 18.2727 44.0695 17.806C44.2375 17.33 44.4708 16.924 44.7695 16.588C45.0775 16.252 45.4415 15.9953 45.8615 15.818C46.2815 15.6313 46.7388 15.538 47.2335 15.538C47.7282 15.538 48.1855 15.6313 48.6055 15.818C49.0255 15.9953 49.3848 16.252 49.6835 16.588C49.9915 16.924 50.2295 17.33 50.3975 17.806C50.5655 18.2727 50.6495 18.7907 50.6495 19.36ZM49.2915 19.36C49.2915 18.5387 49.1048 17.89 48.7315 17.414C48.3675 16.9287 47.8682 16.686 47.2335 16.686C46.5988 16.686 46.0948 16.9287 45.7215 17.414C45.3575 17.89 45.1755 18.5387 45.1755 19.36C45.1755 20.1813 45.3575 20.8347 45.7215 21.32C46.0948 21.796 46.5988 22.034 47.2335 22.034C47.8682 22.034 48.3675 21.796 48.7315 21.32C49.1048 20.8347 49.2915 20.1813 49.2915 19.36ZM57.5353 19.374C57.5353 18.5247 57.3253 17.8713 56.9053 17.414C56.4853 16.9567 55.9253 16.728 55.2253 16.728C54.8333 16.728 54.5253 16.742 54.3013 16.77C54.0867 16.798 53.914 16.8307 53.7833 16.868V21.46C53.942 21.5907 54.1707 21.7167 54.4693 21.838C54.768 21.9593 55.0947 22.02 55.4493 22.02C55.8227 22.02 56.14 21.9547 56.4013 21.824C56.672 21.684 56.8913 21.4973 57.0593 21.264C57.2273 21.0213 57.3487 20.7413 57.4233 20.424C57.498 20.0973 57.5353 19.7473 57.5353 19.374ZM58.8933 19.374C58.8933 19.9247 58.8187 20.4333 58.6693 20.9C58.5293 21.3667 58.3193 21.768 58.0393 22.104C57.7593 22.44 57.414 22.7013 57.0033 22.888C56.602 23.0747 56.14 23.168 55.6173 23.168C55.1973 23.168 54.824 23.112 54.4973 23C54.18 22.888 53.942 22.7807 53.7833 22.678V25.59H52.4813V15.944C52.7893 15.8693 53.172 15.79 53.6293 15.706C54.096 15.6127 54.6327 15.566 55.2393 15.566C55.7993 15.566 56.3033 15.6547 56.7513 15.832C57.1993 16.0093 57.582 16.2613 57.8993 16.588C58.2167 16.9147 58.4593 17.316 58.6273 17.792C58.8047 18.2587 58.8933 18.786 58.8933 19.374ZM59.6801 24.358C59.7827 24.4047 59.9134 24.4467 60.0721 24.484C60.2401 24.5307 60.4034 24.554 60.5621 24.554C61.0754 24.554 61.4767 24.4373 61.7661 24.204C62.0554 23.98 62.3167 23.6113 62.5501 23.098C61.9621 21.978 61.4114 20.7927 60.8981 19.542C60.3941 18.282 59.9741 17.008 59.6381 15.72H61.0381C61.1407 16.14 61.2621 16.5927 61.4021 17.078C61.5514 17.5633 61.7147 18.0627 61.8921 18.576C62.0694 19.0893 62.2607 19.6027 62.4661 20.116C62.6714 20.6293 62.8861 21.124 63.1101 21.6C63.4647 20.62 63.7727 19.6493 64.0341 18.688C64.2954 17.7267 64.5427 16.7373 64.7761 15.72H66.1201C65.7841 17.092 65.4107 18.4127 65.0001 19.682C64.5894 20.942 64.1461 22.1227 63.6701 23.224C63.4834 23.644 63.2874 24.0033 63.0821 24.302C62.8861 24.61 62.6667 24.862 62.4241 25.058C62.1814 25.254 61.9061 25.3987 61.5981 25.492C61.2994 25.5853 60.9587 25.632 60.5761 25.632C60.4734 25.632 60.3661 25.6227 60.2541 25.604C60.1421 25.5947 60.0301 25.576 59.9181 25.548C59.8154 25.5293 59.7174 25.506 59.6241 25.478C59.5401 25.45 59.4794 25.4267 59.4421 25.408L59.6801 24.358Z" fill="#2C3859"/>
<path d="M21.3322 43.7507C20.9365 44.3448 20.0635 44.3448 19.6678 43.7507L15.0403 36.8044C14.5976 36.1398 15.074 35.25 15.8726 35.25H25.1274C25.926 35.25 26.4024 36.1398 25.9597 36.8044L21.3322 43.7507Z" fill="#D9D9D9"/>
</svg>
