<svg width="50" height="50" viewBox="0 0 50 50" fill="none" xmlns="http://www.w3.org/2000/svg">
<g clip-path="url(#clip0_109_13)">
<path d="M11.437 12.9307C11.0514 14.1608 10.5912 15.4602 10.0435 16.8626C9.11306 19.1445 8.32138 21.2839 7.66846 23.2809C6.94079 25.2387 6.50045 27.2915 6.36117 29.3756C6.31472 30.0668 6.45657 30.7577 6.77161 31.3748C7.09996 31.8704 7.55335 32.2706 8.08594 32.5348C8.61852 32.799 9.21142 32.9179 9.80468 32.8794C10.26 32.8759 10.7133 32.8185 11.1551 32.7085C11.7493 32.5268 12.2953 32.2143 12.753 31.794C13.4047 31.233 14.0082 30.6183 14.557 29.9563C14.4918 29.4575 14.466 28.9544 14.4795 28.4516C14.4795 25.8367 15.243 22.4976 16.7699 18.4345C17.5309 16.4857 18.3036 14.5369 19.0602 12.5911L31.1837 10.5904C30.9319 11.5792 30.6297 12.5544 30.2781 13.5121C29.8932 14.572 29.4835 15.683 29.0475 16.8538C27.8432 20.0246 27.0573 22.1706 26.6724 23.2721C25.9449 25.2299 25.5045 27.2828 25.3651 29.3668C25.33 30.0665 25.499 30.7613 25.8515 31.3667C26.127 31.8606 26.5323 32.2698 27.0235 32.5499C27.5147 32.83 28.0732 32.9705 28.6385 32.9561C30.0161 32.8458 31.329 32.325 32.4077 31.4609C33.4951 30.6913 34.4853 29.793 35.3568 28.7854C33.9547 26.7792 33.211 24.3867 33.2286 21.9391C33.2061 19.6203 33.8593 17.3451 35.1085 15.3915C36.294 13.4715 38.1233 12.0355 40.2698 11.3398C40.9022 11.1198 41.5663 11.0046 42.2358 10.9987C42.8191 10.9715 43.4006 11.0817 43.9335 11.3207C44.4663 11.5596 44.9355 11.9204 45.3032 12.3741C46.0822 13.4203 46.4745 14.7043 46.4133 16.0073C46.402 16.709 46.319 17.4078 46.1657 18.0927C45.2954 21.9067 43.6807 25.5114 41.4142 28.6999C41.9502 29.5034 45.2696 31.9277 49.7042 30.0337V13.3799C49.693 9.91259 48.3107 6.59048 45.8591 4.13883C43.4075 1.68717 40.0857 0.305097 36.6188 0.294312H13.3877C10.0666 0.30485 6.87284 1.57395 4.4501 3.84589C2.02735 6.11783 0.555646 9.22373 0.331543 12.5377L12.1717 10.5977C11.8387 11.6569 11.5991 12.4355 11.437 12.9351" fill="#326AEA"/>
<path d="M11.437 12.9307C11.0514 14.1608 10.5912 15.4602 10.0435 16.8626C9.11306 19.1445 8.32138 21.2839 7.66846 23.2809C6.94079 25.2387 6.50045 27.2915 6.36117 29.3756C6.31472 30.0668 6.45657 30.7577 6.77161 31.3748C7.09996 31.8704 7.55335 32.2706 8.08594 32.5348C8.61852 32.799 9.21142 32.9179 9.80468 32.8794C10.26 32.8759 10.7133 32.8185 11.1551 32.7085C11.7493 32.5268 12.2953 32.2143 12.753 31.794C13.4047 31.233 14.0082 30.6183 14.557 29.9563C14.4918 29.4575 14.466 28.9544 14.4795 28.4516C14.4795 25.8367 15.243 22.4976 16.7699 18.4345C17.5309 16.4857 18.3036 14.5369 19.0602 12.5911L31.1837 10.5904C30.9319 11.5792 30.6297 12.5544 30.2781 13.5121C29.8932 14.572 29.4835 15.683 29.0475 16.8538C27.8432 20.0246 27.0573 22.1706 26.6724 23.2721C25.9449 25.2299 25.5045 27.2828 25.3651 29.3668C25.33 30.0665 25.499 30.7613 25.8515 31.3667C26.127 31.8606 26.5323 32.2698 27.0235 32.5499C27.5147 32.83 28.0732 32.9705 28.6385 32.9561C30.0161 32.8458 31.329 32.325 32.4077 31.4609C33.4951 30.6913 34.4853 29.793 35.3568 28.7854C33.9547 26.7792 33.211 24.3867 33.2286 21.9391C33.2061 19.6203 33.8593 17.3451 35.1085 15.3915C36.294 13.4715 38.1233 12.0355 40.2698 11.3398C40.9022 11.1198 41.5663 11.0046 42.2358 10.9987C42.8191 10.9715 43.4006 11.0817 43.9335 11.3207C44.4663 11.5596 44.9355 11.9204 45.3032 12.3741C46.0822 13.4203 46.4745 14.7043 46.4133 16.0073C46.402 16.709 46.319 17.4078 46.1657 18.0927C45.2954 21.9067 43.6807 25.5114 41.4142 28.6999C41.9502 29.5034 45.2696 31.9277 49.7042 30.0337V13.3799C49.693 9.91259 48.3107 6.59048 45.8591 4.13883C43.4075 1.68717 40.0857 0.305097 36.6188 0.294312H13.3877C10.0666 0.30485 6.87284 1.57395 4.4501 3.84589C2.02735 6.11783 0.555646 9.22373 0.331543 12.5377L12.1717 10.5977C11.8387 11.6561 11.5991 12.4348 11.437 12.9307Z" fill="#326AEA"/>
<path d="M38.7923 31.8788C36.863 33.8002 34.6528 35.4171 32.2376 36.674C29.9961 37.8833 27.494 38.5286 24.9474 38.5542C22.7959 38.5974 20.682 37.9861 18.8856 36.8011C17.8505 36.1241 16.9369 35.2774 16.1834 34.2965C14.5887 35.5247 12.8385 36.5364 10.9783 37.3051C9.2582 38.049 7.40826 38.4461 5.53443 38.4738C3.69781 38.4889 1.89194 38.002 0.311829 37.0656C0.437591 40.453 1.86859 43.6605 4.30528 46.0166C6.74198 48.3727 9.99548 49.6949 13.3848 49.7063H36.6196C40.0874 49.6961 43.4103 48.3138 45.8623 45.8613C48.3144 43.4087 49.6964 40.0854 49.7064 36.6171V33.8268C47.2233 35.0057 43.5168 35.7077 38.7923 31.8788Z" fill="#326AEA"/>
<path d="M38.7923 31.8788C36.863 33.8002 34.6528 35.4171 32.2376 36.674C29.9961 37.8833 27.494 38.5286 24.9474 38.5542C22.7959 38.5974 20.682 37.9861 18.8856 36.8011C17.8505 36.1241 16.9369 35.2774 16.1834 34.2965C14.5887 35.5247 12.8385 36.5364 10.9783 37.3051C9.2582 38.049 7.40826 38.4461 5.53443 38.4738C3.69781 38.4889 1.89194 38.002 0.311829 37.0656C0.437591 40.453 1.86859 43.6605 4.30528 46.0166C6.74198 48.3727 9.99548 49.6949 13.3848 49.7063H36.6196C40.0874 49.6961 43.4103 48.3138 45.8623 45.8613C48.3144 43.4087 49.6964 40.0854 49.7064 36.6171V33.8268C47.2254 35.0065 43.5175 35.7077 38.7923 31.8788Z" fill="#326AEA"/>
<path d="M10.9842 37.3073C12.8443 36.5387 14.5944 35.5267 16.1885 34.298C16.9421 35.2788 17.8557 36.1255 18.8908 36.8026C20.6871 37.9876 22.801 38.599 24.9525 38.5556C27.4991 38.5297 30.0011 37.8844 32.2427 36.6755C34.6564 35.4178 36.865 33.8007 38.793 31.8795C43.5168 35.7084 47.2262 35.0072 49.7064 33.8276V30.0337C45.2718 31.9277 41.9517 29.5034 41.4164 28.7C43.6829 25.5114 45.2976 21.9068 46.1679 18.0927C46.3212 17.4078 46.4042 16.709 46.4155 16.0073C46.4769 14.7042 46.0843 13.4201 45.3047 12.3742C44.937 11.9205 44.4678 11.5596 43.935 11.3207C43.4021 11.0818 42.8206 10.9715 42.2373 10.9988C41.5677 11.0046 40.9036 11.1198 40.2712 11.3399C38.1247 12.0353 36.2954 13.4714 35.11 15.3916C33.8607 17.3451 33.2075 19.6203 33.2301 21.9391C33.2125 24.3867 33.9562 26.7793 35.3583 28.7854C34.4873 29.793 33.4973 30.6912 32.4099 31.4602C31.3316 32.3244 30.0189 32.8452 28.6414 32.9554C28.0761 32.9699 27.5176 32.8295 27.0264 32.5493C26.5352 32.2691 26.1299 31.86 25.8545 31.366C25.5017 30.7607 25.3326 30.0658 25.3681 29.3661C25.5075 27.2821 25.9478 25.2292 26.6754 23.2714C27.0595 22.1699 27.8439 20.0239 29.0504 16.8531C29.4886 15.6845 29.8969 14.5713 30.2818 13.5114C30.6333 12.5536 30.9355 11.5784 31.1874 10.5897L19.0639 12.5904C18.3028 14.5384 17.5302 16.4872 16.7735 18.4338C15.2442 22.5018 14.4808 25.8408 14.4832 28.4509C14.4695 28.9537 14.4951 29.4568 14.5599 29.9556C14.0103 30.6174 13.4059 31.2316 12.7531 31.7919C12.2952 32.212 11.7493 32.5245 11.1551 32.7064C10.7133 32.8164 10.26 32.8738 9.8047 32.8773C9.21145 32.9157 8.61858 32.7967 8.08601 32.5325C7.55344 32.2683 7.10004 31.8682 6.77164 31.3726C6.45654 30.7563 6.31396 30.0663 6.359 29.3756C6.4989 27.2916 6.93947 25.2388 7.66702 23.2809C8.32432 21.2817 9.11089 19.1445 10.0428 16.8626C10.5898 15.4609 11.0507 14.1601 11.4355 12.9307C11.5984 12.4348 11.8379 11.6561 12.171 10.5934L0.331567 12.5378C0.313309 12.8175 0.297241 13.0987 0.297241 13.3851V36.6178C0.297241 36.7683 0.303814 36.9165 0.308196 37.0663C1.88936 38.0051 3.69719 38.4933 5.53591 38.4782C7.40998 38.4506 9.26018 38.0534 10.9805 37.3095" fill="white"/>
</g>
<defs>
<clipPath id="clip0_109_13">
<rect width="50" height="50" fill="white"/>
</clipPath>
</defs>
</svg>
