<svg width="247" height="178" viewBox="0 0 247 178" fill="none" xmlns="http://www.w3.org/2000/svg">
<path d="M20.8765 29.873C30.1258 25.7196 41.646 28.3512 52.8967 30.1776C53.0014 27.9658 54.2704 25.2739 52.9411 23.7309C51.3261 21.8562 51.4748 19.8864 52.4466 17.9053C54.9318 12.8393 51.3713 7.4488 47.7762 2.96666C46.966 1.95868 45.9419 1.1667 44.7872 0.65504C43.6326 0.143383 42.3799 -0.0735203 41.1309 0.0219453L34.4715 0.524145C32.851 0.646347 31.3044 1.28814 30.0389 2.36364C28.7733 3.43915 27.849 4.89707 27.3897 6.54232C25.7995 8.82555 24.9485 11.1025 25.4843 13.3675C23.1025 15.0859 22.7023 17.1603 23.7726 19.4987C24.6802 20.9711 24.6705 22.4043 23.7313 23.7978C22.4979 25.5745 21.5532 27.5555 20.936 29.6597L20.8765 29.873Z" fill="#2C3859"/>
<path d="M240.679 155.784H52.1662C50.4897 155.784 48.882 155.081 47.6966 153.83C46.5112 152.578 45.8452 150.881 45.8452 149.111C114.181 140.726 181.233 140.726 247 149.111C247 150.881 246.334 152.578 245.149 153.83C243.963 155.081 242.356 155.784 240.679 155.784Z" fill="#E6E8EC"/>
<path d="M247 149.503L45.8452 149.111L69.1584 107.696L69.2699 107.5V16.2276C69.2698 15.1197 69.4764 14.0227 69.878 12.9992C70.2795 11.9756 70.8681 11.0456 71.6101 10.2623C72.352 9.47889 73.2329 8.8575 74.2024 8.43359C75.1719 8.00967 76.211 7.79153 77.2603 7.79163H214.47C215.519 7.79153 216.558 8.00967 217.527 8.43359C218.497 8.8575 219.378 9.47889 220.12 10.2623C220.862 11.0456 221.45 11.9756 221.852 12.9992C222.253 14.0227 222.46 15.1197 222.46 16.2276V108.128L247 149.503Z" fill="#E6E8EC"/>
<path d="M77.0778 13.6801C76.3878 13.6809 75.7262 13.9706 75.2383 14.4858C74.7503 15.0009 74.4759 15.6994 74.4751 16.4279V99.6491C74.4759 100.378 74.7504 101.076 75.2383 101.591C75.7262 102.106 76.3878 102.396 77.0778 102.397H215.767C216.457 102.396 217.118 102.106 217.606 101.591C218.094 101.076 218.369 100.378 218.37 99.6491V16.4279C218.369 15.6994 218.094 15.001 217.606 14.4858C217.118 13.9707 216.457 13.6809 215.767 13.6801H77.0778Z" fill="#6B61F5"/>
<path d="M77.6592 113.388C77.4459 113.389 77.2373 113.454 77.0577 113.575C76.8782 113.696 76.7352 113.87 76.6458 114.074L69.4622 130.561C69.384 130.741 69.3498 130.938 69.3628 131.135C69.3757 131.332 69.4354 131.522 69.5363 131.689C69.6372 131.855 69.7761 131.992 69.9402 132.086C70.1044 132.181 70.2884 132.231 70.4755 132.231H221.541C221.731 132.231 221.918 132.18 222.084 132.082C222.25 131.984 222.39 131.843 222.49 131.672C222.59 131.502 222.646 131.307 222.655 131.106C222.664 130.906 222.623 130.706 222.538 130.527L214.73 114.039C214.638 113.843 214.496 113.679 214.319 113.563C214.143 113.448 213.94 113.388 213.733 113.388H77.6592Z" fill="#6B61F5"/>
<path d="M145.865 12.3062C146.789 12.3062 147.538 11.5153 147.538 10.5397C147.538 9.56408 146.789 8.77319 145.865 8.77319C144.941 8.77319 144.192 9.56408 144.192 10.5397C144.192 11.5153 144.941 12.3062 145.865 12.3062Z" fill="white"/>
<path d="M131.016 135.371C130.771 135.372 130.533 135.457 130.338 135.615C130.144 135.772 130.004 135.993 129.939 136.243L128.138 143.309C128.093 143.483 128.087 143.666 128.12 143.844C128.154 144.021 128.225 144.188 128.329 144.331C128.433 144.475 128.567 144.591 128.721 144.671C128.874 144.751 129.043 144.793 129.215 144.793H163.483C163.661 144.793 163.836 144.748 163.994 144.662C164.152 144.576 164.288 144.451 164.391 144.298C164.495 144.145 164.561 143.968 164.587 143.782C164.612 143.597 164.595 143.407 164.537 143.23L162.22 136.164C162.144 135.932 162.002 135.732 161.813 135.59C161.624 135.448 161.398 135.371 161.166 135.371H131.016Z" fill="#6B61F5"/>
<path d="M222.46 106.126V107.696H69.1582L69.2736 107.5V106.126H222.46Z" fill="#6B61F5"/>
<path d="M200.014 74.1691H92.8306C92.3043 74.1684 91.7998 73.9474 91.4277 73.5546C91.0556 73.1617 90.8463 72.6291 90.8457 72.0735V44.0033C90.8463 43.4477 91.0556 42.9151 91.4277 42.5222C91.7998 42.1294 92.3043 41.9084 92.8306 41.9077H200.014C200.541 41.9084 201.045 42.1294 201.417 42.5222C201.789 42.9151 201.999 43.4477 201.999 44.0033V72.0735C201.999 72.6291 201.789 73.1617 201.417 73.5546C201.045 73.9474 200.541 74.1684 200.014 74.1691ZM92.8306 42.7459C92.5148 42.7463 92.2121 42.8789 91.9888 43.1146C91.7656 43.3503 91.64 43.6699 91.6397 44.0033V72.0735C91.64 72.4069 91.7656 72.7265 91.9888 72.9622C92.2121 73.1979 92.5148 73.3305 92.8306 73.3309H200.014C200.33 73.3305 200.633 73.1979 200.856 72.9622C201.079 72.7265 201.205 72.4069 201.205 72.0735V44.0033C201.205 43.6699 201.079 43.3503 200.856 43.1146C200.633 42.8789 200.33 42.7463 200.014 42.7459L92.8306 42.7459Z" fill="#D9D9D9"/>
<path d="M109.485 65.4974C113.95 65.4974 117.57 61.6757 117.57 56.9612C117.57 52.2468 113.95 48.425 109.485 48.425C105.019 48.425 101.399 52.2468 101.399 56.9612C101.399 61.6757 105.019 65.4974 109.485 65.4974Z" fill="#D9D9D9"/>
<path d="M128.158 51.2705C127.981 51.2702 127.806 51.3068 127.642 51.3782C127.478 51.4495 127.329 51.5543 127.204 51.6864C127.079 51.8186 126.979 51.9755 126.911 52.1482C126.844 52.321 126.809 52.5062 126.809 52.6932C126.809 52.8802 126.844 53.0654 126.911 53.2382C126.979 53.4109 127.079 53.5679 127.204 53.7C127.329 53.8321 127.478 53.9369 127.642 54.0083C127.806 54.0796 127.981 54.1162 128.158 54.1159H191.686C192.044 54.1159 192.386 53.966 192.639 53.6992C192.892 53.4324 193.034 53.0705 193.034 52.6932C193.034 52.3159 192.892 51.954 192.639 51.6872C192.386 51.4204 192.044 51.2705 191.686 51.2705H128.158Z" fill="#D9D9D9"/>
<path d="M128.158 59.8068C127.801 59.8068 127.458 59.9566 127.205 60.2235C126.953 60.4903 126.811 60.8521 126.811 61.2295C126.811 61.6068 126.953 61.9687 127.205 62.2355C127.458 62.5023 127.801 62.6522 128.158 62.6522H155.494C155.852 62.6522 156.194 62.5023 156.447 62.2355C156.7 61.9687 156.842 61.6068 156.842 61.2295C156.842 60.8521 156.7 60.4903 156.447 60.2235C156.194 59.9566 155.852 59.8068 155.494 59.8068H128.158Z" fill="#D9D9D9"/>
<path d="M68.8944 60.3824L49.0806 71.5037L48.8298 62.236C55.2969 61.0962 61.4497 59.1117 67.1388 55.881L69.211 50.4758C69.4368 49.8868 69.8038 49.3699 70.276 48.9759C70.7481 48.5819 71.3093 48.3243 71.9042 48.2284C72.4991 48.1325 73.1075 48.2015 73.6695 48.4288C74.2315 48.6561 74.7279 49.0338 75.1099 49.5248C75.6688 50.2431 75.9482 51.1589 75.8915 52.0866C75.8347 53.0143 75.4461 53.8846 74.8043 54.5211L68.8944 60.3824Z" fill="#FFB8B8"/>
<path d="M69.7971 115.372C69.1384 116.531 68.2087 117.491 67.0971 118.162C65.9856 118.832 64.7294 119.19 63.4493 119.2L33.5 119.5L33.28 111.752L46.0712 107.78L35.2865 99.0421L47.0744 84.4785L68.4849 105.547C69.7363 106.778 70.5494 108.426 70.7883 110.214C71.0271 112.002 70.6772 113.823 69.7971 115.372Z" fill="#E8E8F0"/>
<path d="M30.0193 167.888H23.2475C17.1674 123.887 10.9785 79.7639 29.2669 63.295L50.8363 67.0021L48.0774 86.3319L36.0387 100.895L30.0193 167.888Z" fill="#E8E8F0"/>
<path d="M35.9719 177.855C35.4418 178.008 34.8871 178.04 34.3442 177.95C33.8014 177.86 32.9604 177.817 32.5 177.5L25.4696 176.29C23.8896 175.203 22.7483 173.536 22.2672 171.611C21.786 169.686 21.9993 167.641 22.8656 165.872C25.9794 167.803 27.6263 168.329 30 166C31.6772 169.575 35.5251 168.562 38.1642 171.574C38.5136 172.115 38.7356 172.737 38.8115 173.387C38.8874 174.037 38.8151 174.696 38.6006 175.311C38.3861 175.925 38.0356 176.477 37.5784 176.92C37.1211 177.362 36.5704 177.683 35.9719 177.855Z" fill="#E8E8F0"/>
<path d="M46.0709 33.903L33.5305 30.7255C35.6133 26.2245 35.7848 21.2163 34.7845 15.8971L43.312 15.6323C43.5792 22.2469 44.3875 28.4265 46.0709 33.903Z" fill="#FFB8B8"/>
<path d="M49.5176 74.9747C40.3887 81.5423 33.9384 75.1994 29.0162 65.4132C29.7001 59.425 28.5926 52.2588 26.5415 44.4722C25.6293 41.0378 25.9699 37.367 27.496 34.1848C29.0221 31.0025 31.6228 28.5399 34.7847 27.2832L45.5694 32.0495C54.7269 39.9301 56.5293 48.4663 53.0936 57.4695L49.5176 74.9747Z" fill="#6B61F5"/>
<path d="M23.2475 40.5231L13.2152 46.0837L31.0225 57.205L33.5003 63.6576C33.6657 64.0883 33.7462 64.55 33.7371 65.0147C33.7279 65.4793 33.6292 65.9371 33.447 66.3601C33.2648 66.7831 33.0029 67.1626 32.6772 67.4753C32.3516 67.7879 31.969 68.0273 31.5529 68.1788C31.0799 68.351 30.5755 68.4053 30.0793 68.3373C29.5831 68.2694 29.1085 68.0811 28.6927 67.7872C28.2769 67.4933 27.9312 67.1018 27.6827 66.6433C27.4342 66.1848 27.2896 65.6718 27.2602 65.1444L27.0096 60.6473L4.37672 52.762C3.61416 52.4963 2.91887 52.0509 2.34349 51.4595C1.76812 50.8681 1.32776 50.1463 1.05576 49.3486C0.659288 48.1859 0.63911 46.9172 0.998377 45.7411C1.35764 44.565 2.07608 43.5478 3.04128 42.8487L21.241 29.6666L23.2475 40.5231Z" fill="#FFB8B8"/>
<path d="M33.2797 41.5821C29.0956 39.6462 25.2909 41.7492 20.4885 43.4356L19.7361 29.4017C24.5046 26.7184 29.0511 25.9949 33.2797 28.0777L33.2797 41.5821Z" fill="#6B61F5"/>
<path d="M38.2849 22.584C42.7067 22.584 46.2914 18.7995 46.2914 14.1311C46.2914 9.46262 42.7067 5.6781 38.2849 5.6781C33.863 5.6781 30.2783 9.46262 30.2783 14.1311C30.2783 18.7995 33.863 22.584 38.2849 22.584Z" fill="#FFB8B8"/>
<path d="M47.8633 13.0644C39.9361 13.8841 33.8957 12.5153 30.0352 8.61808V5.47949H47.1905L47.8633 13.0644Z" fill="#2C3859"/>
</svg>
