<svg width="50" height="50" viewBox="0 0 50 50" fill="none" xmlns="http://www.w3.org/2000/svg">
<g clip-path="url(#clip0_109_81)">
<path d="M11.437 12.9307C11.0514 14.1608 10.5912 15.4602 10.0435 16.8626C9.11306 19.1445 8.32138 21.2839 7.66846 23.2809C6.94079 25.2387 6.50045 27.2915 6.36117 29.3756C6.31472 30.0668 6.45657 30.7577 6.77161 31.3748C7.09996 31.8704 7.55335 32.2706 8.08594 32.5348C8.61852 32.799 9.21142 32.9179 9.80468 32.8794C10.26 32.8759 10.7133 32.8185 11.1551 32.7085C11.7493 32.5268 12.2953 32.2143 12.753 31.794C13.4047 31.233 14.0082 30.6183 14.557 29.9563C14.4918 29.4575 14.466 28.9544 14.4795 28.4516C14.4795 25.8367 15.243 22.4976 16.7699 18.4345C17.5309 16.4857 18.3036 14.5369 19.0602 12.5911L31.1837 10.5904C30.9319 11.5792 30.6297 12.5544 30.2781 13.5121C29.8932 14.572 29.4835 15.683 29.0475 16.8538C27.8432 20.0246 27.0573 22.1706 26.6724 23.2721C25.9449 25.2299 25.5045 27.2828 25.3651 29.3668C25.33 30.0665 25.499 30.7613 25.8515 31.3667C26.127 31.8606 26.5323 32.2698 27.0235 32.5499C27.5147 32.83 28.0732 32.9705 28.6385 32.9561C30.0161 32.8458 31.329 32.325 32.4077 31.4609C33.4951 30.6913 34.4853 29.793 35.3568 28.7854C33.9547 26.7792 33.211 24.3867 33.2286 21.9391C33.2061 19.6203 33.8593 17.3451 35.1085 15.3915C36.294 13.4715 38.1233 12.0355 40.2698 11.3398C40.9022 11.1198 41.5663 11.0046 42.2358 10.9987C42.8191 10.9715 43.4006 11.0817 43.9335 11.3207C44.4663 11.5596 44.9355 11.9204 45.3032 12.3741C46.0822 13.4203 46.4745 14.7043 46.4133 16.0073C46.402 16.709 46.319 17.4078 46.1657 18.0927C45.2954 21.9067 43.6807 25.5114 41.4142 28.6999C41.9502 29.5034 45.2696 31.9277 49.7042 30.0337V13.3799C49.693 9.91259 48.3107 6.59048 45.8591 4.13883C43.4075 1.68717 40.0857 0.305097 36.6188 0.294312H13.3877C10.0666 0.30485 6.87284 1.57395 4.4501 3.84589C2.02735 6.11783 0.555646 9.22373 0.331543 12.5377L12.1717 10.5977C11.8387 11.6569 11.5991 12.4355 11.437 12.9351" fill="white"/>
<path d="M11.437 12.9307C11.0514 14.1608 10.5912 15.4602 10.0435 16.8626C9.11306 19.1445 8.32138 21.2839 7.66846 23.2809C6.94079 25.2387 6.50045 27.2915 6.36117 29.3756C6.31472 30.0668 6.45657 30.7577 6.77161 31.3748C7.09996 31.8704 7.55335 32.2706 8.08594 32.5348C8.61852 32.799 9.21142 32.9179 9.80468 32.8794C10.26 32.8759 10.7133 32.8185 11.1551 32.7085C11.7493 32.5268 12.2953 32.2143 12.753 31.794C13.4047 31.233 14.0082 30.6183 14.557 29.9563C14.4918 29.4575 14.466 28.9544 14.4795 28.4516C14.4795 25.8367 15.243 22.4976 16.7699 18.4345C17.5309 16.4857 18.3036 14.5369 19.0602 12.5911L31.1837 10.5904C30.9319 11.5792 30.6297 12.5544 30.2781 13.5121C29.8932 14.572 29.4835 15.683 29.0475 16.8538C27.8432 20.0246 27.0573 22.1706 26.6724 23.2721C25.9449 25.2299 25.5045 27.2828 25.3651 29.3668C25.33 30.0665 25.499 30.7613 25.8515 31.3667C26.127 31.8606 26.5323 32.2698 27.0235 32.5499C27.5147 32.83 28.0732 32.9705 28.6385 32.9561C30.0161 32.8458 31.329 32.325 32.4077 31.4609C33.4951 30.6913 34.4853 29.793 35.3568 28.7854C33.9547 26.7792 33.211 24.3867 33.2286 21.9391C33.2061 19.6203 33.8593 17.3451 35.1085 15.3915C36.294 13.4715 38.1233 12.0355 40.2698 11.3398C40.9022 11.1198 41.5663 11.0046 42.2358 10.9987C42.8191 10.9715 43.4006 11.0817 43.9335 11.3207C44.4663 11.5596 44.9355 11.9204 45.3032 12.3741C46.0822 13.4203 46.4745 14.7043 46.4133 16.0073C46.402 16.709 46.319 17.4078 46.1657 18.0927C45.2954 21.9067 43.6807 25.5114 41.4142 28.6999C41.9502 29.5034 45.2696 31.9277 49.7042 30.0337V13.3799C49.693 9.91259 48.3107 6.59048 45.8591 4.13883C43.4075 1.68717 40.0857 0.305097 36.6188 0.294312H13.3877C10.0666 0.30485 6.87284 1.57395 4.4501 3.84589C2.02735 6.11783 0.555646 9.22373 0.331543 12.5377L12.1717 10.5977C11.8387 11.6561 11.5991 12.4348 11.437 12.9307Z" fill="white"/>
<path d="M38.7923 31.8788C36.863 33.8002 34.6528 35.4171 32.2376 36.674C29.9961 37.8833 27.494 38.5286 24.9474 38.5542C22.7959 38.5974 20.682 37.9861 18.8856 36.8011C17.8505 36.1241 16.9369 35.2774 16.1834 34.2965C14.5887 35.5247 12.8385 36.5364 10.9783 37.3051C9.2582 38.049 7.40826 38.4461 5.53443 38.4738C3.69781 38.4889 1.89194 38.002 0.311829 37.0656C0.437591 40.453 1.86859 43.6605 4.30528 46.0166C6.74198 48.3727 9.99548 49.6949 13.3848 49.7063H36.6196C40.0874 49.6961 43.4103 48.3138 45.8623 45.8613C48.3144 43.4087 49.6964 40.0854 49.7064 36.6171V33.8268C47.2233 35.0057 43.5168 35.7077 38.7923 31.8788Z" fill="white"/>
<path d="M38.7923 31.8788C36.863 33.8002 34.6528 35.4171 32.2376 36.674C29.9961 37.8833 27.494 38.5286 24.9474 38.5542C22.7959 38.5974 20.682 37.9861 18.8856 36.8011C17.8505 36.1241 16.9369 35.2774 16.1834 34.2965C14.5887 35.5247 12.8385 36.5364 10.9783 37.3051C9.2582 38.049 7.40826 38.4461 5.53443 38.4738C3.69781 38.4889 1.89194 38.002 0.311829 37.0656C0.437591 40.453 1.86859 43.6605 4.30528 46.0166C6.74198 48.3727 9.99548 49.6949 13.3848 49.7063H36.6196C40.0874 49.6961 43.4103 48.3138 45.8623 45.8613C48.3144 43.4087 49.6964 40.0854 49.7064 36.6171V33.8268C47.2254 35.0065 43.5175 35.7077 38.7923 31.8788Z" fill="white"/>
</g>
<defs>
<clipPath id="clip0_109_81">
<rect width="50" height="50" fill="white"/>
</clipPath>
</defs>
</svg>
