<svg id="Gruppe_2" data-name="Gruppe 2" xmlns="http://www.w3.org/2000/svg" xmlns:xlink="http://www.w3.org/1999/xlink" width="100%" height="100%" viewBox="0 0 68.462 68.453">
                        <g id="Gruppe_1" data-name="Gruppe 1" transform="translate(0 0)" clip-path="url(#clip-path)">
                            <path id="Pfad_1" data-name="Pfad 1" d="M15.762,17.794c-.528,1.684-1.158,3.463-1.908,5.383q-1.911,4.686-3.252,8.787a29.616,29.616,0,0,0-1.79,8.344,5.245,5.245,0,0,0,.562,2.737,4.623,4.623,0,0,0,4.153,2.06,7.906,7.906,0,0,0,1.849-.234,5.7,5.7,0,0,0,2.188-1.252,21.021,21.021,0,0,0,2.47-2.516,13.165,13.165,0,0,1-.106-2.06q0-5.37,3.136-13.714c1.042-2.668,2.1-5.336,3.136-8l16.6-2.739a40.872,40.872,0,0,1-1.24,4c-.527,1.451-1.088,2.972-1.685,4.575-1.649,4.341-2.725,7.279-3.252,8.787a29.627,29.627,0,0,0-1.79,8.344,4.947,4.947,0,0,0,.666,2.738,4.246,4.246,0,0,0,3.816,2.176,9.464,9.464,0,0,0,5.161-2.047A22.607,22.607,0,0,0,48.514,39.5,16.157,16.157,0,0,1,45.6,30.127a16.343,16.343,0,0,1,2.574-8.964,13.025,13.025,0,0,1,7.067-5.547,8.415,8.415,0,0,1,2.692-.467,5.1,5.1,0,0,1,4.2,1.883,7.721,7.721,0,0,1,1.52,4.974,14.112,14.112,0,0,1-.339,2.855,40.687,40.687,0,0,1-6.506,14.522c.734,1.1,5.279,4.419,11.351,1.826v-22.8A17.973,17.973,0,0,0,50.242.494H18.433A17.975,17.975,0,0,0,.556,17.256L16.768,14.6c-.456,1.45-.784,2.516-1.006,3.2" transform="translate(-0.102 -0.091)" fill="#326aea"/>
                            <path id="Pfad_2" data-name="Pfad 2" d="M15.762,17.794c-.528,1.684-1.158,3.463-1.908,5.383q-1.911,4.686-3.252,8.787a29.616,29.616,0,0,0-1.79,8.344,5.245,5.245,0,0,0,.562,2.737,4.623,4.623,0,0,0,4.153,2.06,7.906,7.906,0,0,0,1.849-.234,5.7,5.7,0,0,0,2.188-1.252,21.021,21.021,0,0,0,2.47-2.516,13.165,13.165,0,0,1-.106-2.06q0-5.37,3.136-13.714c1.042-2.668,2.1-5.336,3.136-8l16.6-2.739a40.872,40.872,0,0,1-1.24,4c-.527,1.451-1.088,2.972-1.685,4.575-1.649,4.341-2.725,7.279-3.252,8.787a29.627,29.627,0,0,0-1.79,8.344,4.947,4.947,0,0,0,.666,2.738,4.246,4.246,0,0,0,3.816,2.176,9.464,9.464,0,0,0,5.161-2.047A22.607,22.607,0,0,0,48.514,39.5,16.157,16.157,0,0,1,45.6,30.127a16.343,16.343,0,0,1,2.574-8.964,13.025,13.025,0,0,1,7.067-5.547,8.415,8.415,0,0,1,2.692-.467,5.1,5.1,0,0,1,4.2,1.883,7.721,7.721,0,0,1,1.52,4.974,14.112,14.112,0,0,1-.339,2.855,40.687,40.687,0,0,1-6.506,14.522c.734,1.1,5.279,4.419,11.351,1.826v-22.8A17.973,17.973,0,0,0,50.242.494H18.433A17.975,17.975,0,0,0,.556,17.256L16.768,14.6C16.312,16.049,15.984,17.115,15.762,17.794Z" transform="translate(-0.102 -0.091)" fill="#326aea"/>
                            <path id="Pfad_3" data-name="Pfad 3" d="M53.212,53.506a36.784,36.784,0,0,1-8.975,6.565,21.478,21.478,0,0,1-9.982,2.574,14.544,14.544,0,0,1-8.3-2.4,15.061,15.061,0,0,1-3.7-3.429,31.225,31.225,0,0,1-7.127,4.119,19.509,19.509,0,0,1-7.454,1.6A13.805,13.805,0,0,1,.523,60.607a17.973,17.973,0,0,0,17.9,17.306H50.237a17.972,17.972,0,0,0,17.919-17.92V56.173c-3.4,1.614-8.474,2.575-14.943-2.667" transform="translate(-0.096 -9.862)" fill="#326aea"/>
                            <path id="Pfad_4" data-name="Pfad 4" d="M53.212,53.506a36.784,36.784,0,0,1-8.975,6.565,21.478,21.478,0,0,1-9.982,2.574,14.544,14.544,0,0,1-8.3-2.4,15.061,15.061,0,0,1-3.7-3.429,31.225,31.225,0,0,1-7.127,4.119,19.509,19.509,0,0,1-7.454,1.6A13.805,13.805,0,0,1,.523,60.607a17.973,17.973,0,0,0,17.9,17.306H50.237a17.972,17.972,0,0,0,17.919-17.92V56.173C64.759,57.788,59.682,58.748,53.212,53.506Z" transform="translate(-0.096 -9.862)" fill="#326aea"/>
                            <path id="Pfad_5" data-name="Pfad 5" d="M15.133,54.351a31.175,31.175,0,0,0,7.126-4.12,15.066,15.066,0,0,0,3.7,3.429,14.542,14.542,0,0,0,8.3,2.4,21.491,21.491,0,0,0,9.982-2.574A36.8,36.8,0,0,0,53.21,46.92c6.468,5.242,11.547,4.282,14.943,2.667V44.393c-6.072,2.593-10.618-.726-11.351-1.826a40.687,40.687,0,0,0,6.506-14.522,14.112,14.112,0,0,0,.339-2.855,7.715,7.715,0,0,0-1.521-4.974,5.1,5.1,0,0,0-4.2-1.883,8.415,8.415,0,0,0-2.692.467,13.022,13.022,0,0,0-7.067,5.547,16.341,16.341,0,0,0-2.574,8.964,16.157,16.157,0,0,0,2.914,9.373,22.547,22.547,0,0,1-4.037,3.662,9.458,9.458,0,0,1-5.16,2.047,4.245,4.245,0,0,1-3.816-2.176,4.94,4.94,0,0,1-.666-2.738,29.627,29.627,0,0,1,1.79-8.344c.526-1.508,1.6-4.446,3.252-8.787.6-1.6,1.159-3.124,1.686-4.575a40.941,40.941,0,0,0,1.24-4l-16.6,2.739c-1.042,2.667-2.1,5.335-3.136,8q-3.141,8.354-3.136,13.714a13.187,13.187,0,0,0,.105,2.06A20.956,20.956,0,0,1,17.555,46.8a5.705,5.705,0,0,1-2.188,1.252,7.906,7.906,0,0,1-1.849.234,4.624,4.624,0,0,1-4.153-2.06A5.254,5.254,0,0,1,8.8,43.492a29.653,29.653,0,0,1,1.791-8.344c.9-2.737,1.977-5.663,3.253-8.787.749-1.919,1.38-3.7,1.907-5.383.223-.679.551-1.745,1.007-3.2L.547,20.44C.522,20.823.5,21.208.5,21.6V53.407c0,.206.009.409.015.614a13.8,13.8,0,0,0,7.158,1.933,19.51,19.51,0,0,0,7.455-1.6" transform="translate(-0.093 -3.275)" fill="#fff"/>
                        </g>
                    </svg>