<svg width="267" height="402" viewBox="0 0 267 402" fill="none" xmlns="http://www.w3.org/2000/svg">
<path d="M144 350C172.166 350 195 327.167 195 299C195 270.833 172.166 248 144 248C115.833 248 93 270.833 93 299C93 327.167 115.833 350 144 350Z" fill="#D9D9D9"/>
<path d="M91 102C119.166 102 142 79.1665 142 51C142 22.8335 119.166 0 91 0C62.8334 0 40 22.8335 40 51C40 79.1665 62.8334 102 91 102Z" fill="#F0F0F0"/>
<path d="M262 400.5C140.598 400.5 144.598 260.5 140.598 166.5C136.598 72.4998 109.598 25.9999 5.09784 22.9999" stroke="#2C3859" stroke-width="2"/>
<path d="M135.52 278.73L112.75 256.25C111.642 255.147 110.327 254.274 108.88 253.68C107.433 253.086 105.884 252.784 104.32 252.79H104.24C102.665 252.795 101.106 253.112 99.6537 253.723C98.2015 254.334 96.885 255.227 95.7803 256.35C90.6889 261.503 87.7933 268.428 87.7019 275.671C87.6105 282.914 90.3306 289.911 95.2903 295.19C95.5303 295.45 95.7803 295.7 96.0303 295.95C97.4151 297.327 98.9439 298.55 100.59 299.6C105.092 302.509 110.341 304.048 115.7 304.03H115.87C119.549 304.018 123.188 303.276 126.578 301.848C129.968 300.42 133.042 298.334 135.62 295.71C137.855 293.443 139.099 290.383 139.08 287.199C139.062 284.016 137.781 280.971 135.52 278.73ZM134.2 294.3C129.973 298.559 124.406 301.23 118.439 301.864C112.472 302.498 106.468 301.056 101.44 297.78C100.002 296.828 98.6592 295.74 97.4303 294.53C92.524 289.684 89.7435 283.088 89.7003 276.193C89.6572 269.297 92.355 262.667 97.2003 257.76C98.1213 256.822 99.2198 256.076 100.432 255.566C101.644 255.056 102.945 254.792 104.26 254.79H104.32C105.622 254.786 106.912 255.038 108.117 255.532C109.321 256.026 110.417 256.753 111.34 257.67L134.11 280.16C135.995 282.024 137.063 284.56 137.08 287.211C137.097 289.863 136.061 292.412 134.2 294.3Z" fill="#2C3859"/>
<path d="M60.8104 204.95L38.0404 182.46C35.7992 180.236 32.7677 178.992 29.6105 179H29.5404C27.9629 179.006 26.4021 179.325 24.9483 179.938C23.4946 180.551 22.1766 181.445 21.0704 182.57C16.8614 186.845 14.1323 192.355 13.2829 198.294C12.4335 204.232 13.5085 210.287 16.3504 215.57L16.3605 215.58C17.5329 217.741 18.9891 219.735 20.6904 221.51C20.8804 221.73 21.1004 221.95 21.3204 222.17C26.5494 227.36 33.6228 230.266 40.9905 230.25H41.1705C44.8495 230.235 48.489 229.491 51.8788 228.061C55.2687 226.631 58.3417 224.544 60.9205 221.92C62.0276 220.799 62.903 219.47 63.4967 218.01C64.0904 216.55 64.3906 214.988 64.3804 213.412C64.3702 211.836 64.0497 210.278 63.4371 208.826C62.8246 207.374 61.932 206.057 60.8104 204.95ZM59.4905 220.52C57.0969 222.955 54.2447 224.892 51.0986 226.218C47.9525 227.545 44.5748 228.236 41.1604 228.25H40.9905C35.8628 228.248 30.8501 226.73 26.583 223.887C22.3158 221.043 18.9847 217.002 17.0085 212.27C15.0323 207.539 14.4993 202.328 15.4765 197.295C16.4537 192.261 18.8974 187.629 22.5004 183.98C24.3647 182.095 26.9008 181.027 29.5518 181.01C32.2028 180.993 34.7523 182.029 36.6404 183.89L59.4104 206.37C61.2942 208.238 62.3605 210.776 62.3755 213.429C62.3905 216.081 61.353 218.631 59.4905 220.52Z" fill="#2C3859"/>
<path d="M136.976 285.798L111.873 261.004C110.226 259.382 108.004 258.479 105.693 258.493C103.382 258.508 101.171 259.438 99.5451 261.081C97.5112 263.135 95.9023 265.571 94.8103 268.248C93.7182 270.925 93.1645 273.791 93.1809 276.682C93.1972 279.573 93.7832 282.432 94.9054 285.097C96.0276 287.761 97.664 290.179 99.721 292.21C101.778 294.242 104.215 295.848 106.893 296.937C109.572 298.026 112.438 298.577 115.329 298.557C118.22 298.538 121.079 297.948 123.742 296.823C126.406 295.698 128.821 294.059 130.85 292L136.976 285.798Z" fill="#7832EA"/>
<path d="M62.2703 212.014L37.1671 187.22C35.521 185.598 33.2986 184.695 30.9876 184.709C28.6765 184.723 26.4655 185.654 24.8397 187.296C22.8058 189.351 21.1968 191.787 20.1048 194.464C19.0128 197.141 18.4591 200.007 18.4754 202.898C18.4918 205.789 19.0778 208.648 20.2 211.313C21.3222 213.977 22.9586 216.394 25.0156 218.426C27.0726 220.458 29.5098 222.064 32.188 223.153C34.8662 224.242 37.7328 224.792 40.6239 224.773C43.5149 224.753 46.3738 224.164 49.037 223.039C51.7002 221.914 54.1155 220.275 56.1449 218.215L62.2703 212.014Z" fill="#7832EA"/>
<path d="M109.39 301.24L108.79 302.82C105.97 301.75 103.237 300.677 100.59 299.6C53.7104 280.47 31.3304 258.08 16.3604 215.58L16.3504 215.57C15.6404 213.57 14.9504 211.523 14.2804 209.43L15.8604 208.92C16.3887 210.933 17.1611 212.874 18.1604 214.7C18.9804 217.03 19.8237 219.3 20.6904 221.51C34.7604 257.38 55.5104 277.88 95.2904 295.19C97.2904 296.06 99.3404 296.923 101.44 297.78C103.879 299.369 106.566 300.538 109.39 301.24Z" fill="#2C3859"/>
<path d="M37.6231 228.43L36.2173 229.853L88.1553 281.151L89.5611 279.728L37.6231 228.43Z" fill="#2C3859"/>
<path d="M168 74.5618V190.208C168 192.61 167.053 194.915 165.363 196.623C163.674 198.33 161.378 199.302 158.976 199.327C158.943 199.331 158.91 199.332 158.877 199.331H145.417C134.647 199.331 124.319 195.053 116.704 187.438C109.088 179.823 104.81 169.494 104.81 158.725V74.5617C104.81 72.1421 105.771 69.8215 107.482 68.1105C109.193 66.3996 111.514 65.4384 113.934 65.4384H119.388C116.861 72.809 151.153 75.9121 153.036 65.4384H158.877C161.296 65.4384 163.617 66.3996 165.328 68.1106C167.039 69.8215 168 72.1421 168 74.5618Z" fill="#7832EA"/>
<path d="M128.057 56.7907C128.057 56.4737 128.184 56.1699 128.408 55.9457C128.632 55.7216 128.936 55.5955 129.253 55.5951H137.383C137.7 55.596 138.003 55.7224 138.226 55.9465C138.45 56.1706 138.575 56.4742 138.575 56.7907C138.575 57.1073 138.45 57.4108 138.226 57.635C138.003 57.8591 137.7 57.9855 137.383 57.9864H129.253C128.936 57.986 128.632 57.86 128.408 57.6358C128.184 57.4117 128.057 57.1077 128.057 56.7907Z" fill="#2C3859"/>
<path d="M161.67 214H110.254C106.265 213.995 102.44 212.409 99.6197 209.588C96.7989 206.768 95.2122 202.943 95.2076 198.954V118.113C94.9253 117.91 94.6954 117.643 94.5369 117.334C94.3784 117.024 94.296 116.682 94.2965 116.334V108.204C94.296 107.856 94.3784 107.513 94.5369 107.204C94.6954 106.895 94.9253 106.628 95.2076 106.425V104.243C94.9253 104.04 94.6954 103.773 94.5369 103.464C94.3784 103.155 94.296 102.812 94.2965 102.465V94.334C94.296 93.9864 94.3784 93.6438 94.5369 93.3346C94.6954 93.0253 94.9253 92.7583 95.2076 92.5556V88.6118C94.859 88.4246 94.5678 88.1461 94.3652 87.8062C94.1626 87.4663 94.0561 87.0778 94.0572 86.6821V78.5517C94.0561 78.156 94.1625 77.7673 94.3652 77.4274C94.5678 77.0874 94.859 76.8089 95.2076 76.6215V65.8149C95.2122 61.8258 96.799 58.0014 99.6197 55.1808C102.44 52.3601 106.265 50.7735 110.254 50.769H161.67C165.659 50.7735 169.483 52.3602 172.304 55.1808C175.125 58.0015 176.711 61.8259 176.716 65.8149V89.3711C176.987 89.5406 177.21 89.7761 177.365 90.0557C177.52 90.3352 177.601 90.6496 177.602 90.9692V106.472C177.601 106.792 177.52 107.106 177.365 107.386C177.21 107.665 176.987 107.901 176.716 108.071V198.954C176.711 202.943 175.125 206.767 172.304 209.588C169.483 212.409 165.659 213.995 161.67 214ZM110.254 52.769C106.795 52.7729 103.479 54.1486 101.033 56.5944C98.5874 59.0401 97.2116 62.3561 97.2076 65.8149V78.3228L96.2456 78.3599C96.1956 78.3616 96.1483 78.3825 96.1132 78.4182C96.0781 78.4539 96.0581 78.5017 96.0572 78.5518V86.682C96.0582 86.732 96.0784 86.7797 96.1134 86.8154C96.1484 86.8511 96.1957 86.872 96.2456 86.874L97.2076 86.9106V93.9599L96.4468 94.1474C96.4047 94.1575 96.3671 94.1814 96.3399 94.2151C96.3127 94.2488 96.2974 94.2906 96.2964 94.3339V102.465C96.2974 102.508 96.3127 102.55 96.3399 102.584C96.3671 102.617 96.4047 102.641 96.4468 102.651L97.2076 102.839V107.829L96.4468 108.017C96.4047 108.027 96.3671 108.051 96.3399 108.085C96.3127 108.118 96.2974 108.16 96.2964 108.204V116.334C96.2973 116.377 96.3126 116.419 96.3398 116.453C96.367 116.487 96.4046 116.511 96.4468 116.521L97.2076 116.708V198.954C97.2116 202.413 98.5874 205.729 101.033 208.175C103.479 210.62 106.795 211.996 110.254 212H161.67C165.129 211.996 168.445 210.62 170.89 208.174C173.336 205.729 174.712 202.413 174.716 198.954V106.358H175.602V91.0835H174.716V65.8149C174.712 62.3561 173.336 59.0401 170.89 56.5944C168.445 54.1487 165.129 52.773 161.67 52.769L110.254 52.769Z" fill="#2C3859"/>
<path d="M141.927 57.9864C142.587 57.9864 143.122 57.4511 143.122 56.7907C143.122 56.1304 142.587 55.5951 141.927 55.5951C141.266 55.5951 140.731 56.1304 140.731 56.7907C140.731 57.4511 141.266 57.9864 141.927 57.9864Z" fill="#2C3859"/>
<path d="M136.734 186.004C141.442 186.004 145.258 182.188 145.258 177.48C145.258 172.773 141.442 168.956 136.734 168.956C132.026 168.956 128.21 172.773 128.21 177.48C128.21 182.188 132.026 186.004 136.734 186.004Z" fill="white"/>
</svg>
