<svg width="482" height="297" viewBox="0 0 482 297" fill="none" xmlns="http://www.w3.org/2000/svg">
<path d="M349.104 68.1866C345.928 69.5077 342.742 70.833 339.785 72.5778C338.441 73.3672 337.151 74.2396 335.769 74.9583C334.282 75.7394 332.702 76.3293 331.135 76.9608C326.809 78.7027 322.609 80.732 318.562 83.0345C318.912 78.5685 318.251 73.7162 315.541 70.2347C315.143 69.7188 314.701 69.2379 314.218 68.7973C312.301 67.0441 309.584 66.5913 307.7 65.0583C308.846 63.0725 311.391 61.2695 313.123 59.7531C314.994 58.1218 316.935 56.575 318.946 55.1126C322.965 52.1856 327.245 49.623 331.733 47.456C334.581 46.0809 337.556 44.8512 340.699 44.4316C341.095 44.3437 341.509 44.38 341.883 44.5355C342.372 44.8013 342.549 45.3996 342.667 45.9355C343.252 48.6151 343.551 51.3653 344.04 54.0657C344.28 55.4535 344.605 56.8256 345.013 58.1744C345.539 59.7696 346.145 61.3378 346.829 62.8731C347.59 64.6429 348.349 66.4141 349.104 68.1866Z" fill="#FBBEBE"/>
<path d="M258.936 143.914C258.935 149.428 257.167 154.802 253.885 159.267C250.603 163.733 245.974 167.062 240.66 168.78C235.345 170.497 229.616 170.516 224.29 168.832C218.964 167.149 214.313 163.85 211.001 159.405C207.651 154.916 205.845 149.487 205.849 143.914C205.849 136.972 208.645 130.315 213.623 125.406C218.601 120.498 225.353 117.741 232.392 117.741C239.432 117.741 246.184 120.498 251.162 125.406C256.139 130.315 258.936 136.972 258.936 143.914Z" fill="#BE6F72"/>
<path d="M222.883 166.979C224.303 169.393 225.735 171.827 226.645 174.457C227.555 177.087 227.909 179.999 227.159 182.687C236.201 177.992 246.962 178.37 256.914 175.994C257.18 175.964 257.425 175.836 257.6 175.637C257.661 175.5 257.692 175.353 257.692 175.205C257.692 175.056 257.661 174.909 257.6 174.773C255.517 167.171 254.716 159.283 255.228 151.425L250.033 154.453C247.759 155.838 245.402 157.087 242.976 158.192C239.542 159.675 235.898 160.573 232.312 161.611C229.472 162.442 223.835 163.518 222.049 165.965C222.371 166.265 222.651 166.606 222.883 166.979Z" fill="#BE6F72"/>
<path d="M208.258 131.783C206.531 132.468 204.5 133.257 202.912 132.298C201.745 131.587 201.264 130.112 201.336 128.762C201.408 127.412 201.93 126.133 202.343 124.845C203.186 122.198 203.641 119.444 204.58 116.81C205.52 114.176 207.053 111.638 209.489 110.246C213.972 107.687 219.773 109.801 224.749 108.385C226.856 107.791 228.689 106.594 230.648 105.655C232.607 104.716 234.811 103.994 236.926 104.496C239.403 105.065 241.232 107.122 243.541 108.169C246.069 109.315 249.094 109.236 251.394 110.769C253.025 111.858 254.053 113.615 254.967 115.339C257.892 120.88 260.202 126.716 261.856 132.746C262.517 134.906 262.895 137.139 262.981 139.393C263.002 142.277 262.21 145.102 261.426 147.885L260.162 152.289C259.694 153.951 259.214 155.612 258.329 157.116C257.444 158.62 256.079 159.887 254.39 160.323C252.283 160.859 249.831 159.821 248.912 157.877C248.348 156.672 248.373 155.292 248.344 153.967C248.297 151.372 248.015 148.786 247.501 146.24C247.24 144.965 246.89 143.639 246.01 142.675C244.872 141.429 243.06 141.014 241.375 140.985C239.403 140.96 237.242 141.487 236.091 143.062C235.169 144.333 235.009 146.12 233.783 147.112C233.237 147.525 232.59 147.784 231.908 147.864C230.517 148.035 229.108 147.741 227.906 147.03C226.705 146.318 225.78 145.229 225.28 143.938C224.893 142.842 224.703 141.479 223.65 140.964C223.102 140.694 222.449 140.744 221.863 140.569C220.068 140.033 219.596 137.79 219.432 135.949C219.243 133.793 219.971 129.535 217.254 129.39C214.326 129.232 210.951 130.898 208.258 131.783Z" fill="#3F3D56"/>
<path d="M214.625 160.153C213.689 160.598 212.666 161.117 212.299 162.073C212.156 162.446 212.131 162.858 212 163.24C211.406 164.931 209.089 165.263 207.892 166.609C207.352 167.29 206.989 168.09 206.834 168.94C206.035 172.293 206.294 175.806 207.576 179.01C207.947 180.025 208.52 180.958 209.261 181.752C211.402 183.904 215.092 183.862 217.759 182.396C220.426 180.929 222.268 178.358 223.831 175.749C224.66 174.436 225.353 173.044 225.9 171.594C226.38 170.12 226.723 168.606 226.923 167.07C227.859 161.084 229.081 154.445 228.659 148.375C227.395 148.296 224.981 148.209 223.865 148.99C222.466 149.971 222.853 151.948 222.348 153.381C221.151 156.83 217.679 158.649 214.625 160.153Z" fill="#3F3D56"/>
<path d="M215.72 160.947C214.14 161.042 211.309 159.318 209.725 159.405C208.647 157.55 207.694 155.626 206.872 153.647C207.715 152.455 209.072 152.164 211.124 153.647C212.771 154.79 215.046 158.741 215.72 160.947Z" fill="#3F3D56"/>
<path d="M239.538 95.3067C237.823 96.1999 236.762 96.2415 235.915 96.0628C235.068 95.8842 233.387 96.7151 233.387 96.7151C218.535 101.725 217.949 104.089 217.949 104.089L235.144 98.1026C238.451 96.6735 238.514 97.1762 238.514 97.1762C241.042 99.5193 244.261 97.9323 244.261 97.9323C244.261 97.9323 248.715 95.8551 247.404 93.8568C246.094 91.8585 241.257 94.4301 239.538 95.3067ZM246.701 94.9328C246.701 94.9328 245.437 98.2563 240.891 97.7163C240.891 97.7163 238.658 97.3922 239.601 95.7512C239.601 95.7512 244.236 93.8319 245.462 93.969C246.688 94.1061 246.688 94.9494 246.688 94.9494L246.701 94.9328Z" fill="#E8E8F0"/>
<path opacity="0.1" d="M239.538 95.3067C237.823 96.1999 236.762 96.2415 235.915 96.0628C235.068 95.8842 233.387 96.7151 233.387 96.7151C218.535 101.725 217.949 104.089 217.949 104.089L235.144 98.1026C238.451 96.6735 238.514 97.1762 238.514 97.1762C241.042 99.5193 244.261 97.9323 244.261 97.9323C244.261 97.9323 248.715 95.8551 247.404 93.8568C246.094 91.8585 241.257 94.4301 239.538 95.3067ZM246.701 94.9328C246.701 94.9328 245.437 98.2563 240.891 97.7163C240.891 97.7163 238.658 97.3922 239.601 95.7512C239.601 95.7512 244.236 93.8319 245.462 93.969C246.688 94.1061 246.688 94.9494 246.688 94.9494L246.701 94.9328Z" fill="black"/>
<path d="M240.482 86.0424C237.912 86.1254 237.377 88.0199 237.377 88.0199C236.862 88.6253 236.561 89.379 236.517 90.1677C236.474 90.9565 236.691 91.7378 237.136 92.3945L232.573 96.8688C231.709 97.1977 230.966 97.7771 230.441 98.5306C230.441 98.5306 220.422 107.255 220.57 108.048C220.57 108.048 222.204 108.879 232.573 99.5609L235.295 97.1845C235.295 97.1845 235.898 92.7434 240.149 91.9001C240.149 91.9001 240.57 92.0829 240.794 91.0941C241.032 90.62 241.349 90.1888 241.733 89.8187C242.298 89.3036 243.052 85.9551 240.482 86.0424ZM241.202 89.046C241.202 89.046 239.824 92.5523 237.861 91.5387C235.898 90.525 237.806 88.186 237.806 88.186C241.211 84.9206 241.202 89.046 241.202 89.046Z" fill="#E8E8F0"/>
<path opacity="0.1" d="M232.662 98.6137C232.962 98.6137 233.205 98.3737 233.205 98.0777C233.205 97.7818 232.962 97.5418 232.662 97.5418C232.362 97.5418 232.118 97.7818 232.118 98.0777C232.118 98.3737 232.362 98.6137 232.662 98.6137Z" fill="black"/>
<path d="M280.209 81.1318C278.623 80.308 276.977 79.6025 275.284 79.0213C273.033 78.3921 270.721 78.0022 268.386 77.8581C261.01 77.1657 253.612 76.7641 246.191 76.6533C244.88 76.6533 243.541 76.6242 242.298 77.0688C241.188 77.4889 240.182 78.1391 239.348 78.9757C237.905 80.3365 236.758 81.9735 235.978 83.7865C235.727 84.2407 235.652 84.7692 235.767 85.2738C235.936 85.7557 236.61 86.0756 236.993 85.7349C236.012 86.5143 235.292 87.5665 234.925 88.7548C234.559 89.9431 234.563 91.2126 234.937 92.3986C234.352 92.7002 233.856 93.1454 233.497 93.6912C233.137 94.237 232.927 94.8649 232.885 95.5144C235.948 96.0736 239.102 95.9229 242.095 95.0741C241.202 94.8497 240.28 95.6765 240.225 96.5821C240.231 97.0371 240.364 97.4816 240.61 97.8665C240.856 98.2514 241.206 98.5618 241.619 98.7632C242.455 99.1531 243.376 99.333 244.299 99.2866C247.868 99.2866 251.339 98.0943 254.9 97.9406C257.621 97.8201 260.428 98.3062 263.027 97.5252C266.044 96.6029 268.736 93.9898 271.846 94.534C274.327 94.9702 275.945 97.2427 277.563 99.1454C280.15 102.182 283.348 104.642 286.52 107.08C288.964 108.958 291.517 110.886 294.547 111.521C295.453 111.765 296.415 111.72 297.294 111.393C298.028 111.005 298.645 110.431 299.08 109.731C302.345 105.161 302.35 99.4071 302.16 94.0521C302.063 91.3143 301.457 90.9445 298.886 89.8104C295.903 88.4893 292.932 87.1363 289.971 85.7515C286.702 84.2448 283.448 82.7049 280.209 81.1318Z" fill="#FBBEBE"/>
<path d="M314.358 91.3849C313.855 91.6809 313.325 91.9272 312.773 92.1203C311.851 92.3363 310.911 91.9499 310.014 91.6508C306.222 90.4045 302.008 90.6995 298.343 89.1582C299.545 95.9614 297.971 102.957 293.965 108.622C293.207 109.685 292.208 110.774 290.894 110.857C291.479 112.631 293.283 113.703 294.993 114.5C297.725 115.775 300.583 116.769 303.521 117.466C304.364 117.662 305.392 117.757 305.88 117.051C306.175 116.636 306.302 115.925 306.82 115.95C307.612 116.781 307.351 118.484 308.446 118.858C308.788 118.944 309.146 118.944 309.487 118.858L311.931 118.443C312.664 118.38 313.37 118.14 313.987 117.745C314.373 117.414 314.692 117.013 314.926 116.565C317.665 111.966 318.718 106.644 319.14 101.389C319.346 98.7798 319.603 96.013 319.422 93.3957C319.253 91.1523 316.338 90.4751 314.358 91.3849Z" fill="#E8E8F0"/>
<path opacity="0.1" d="M314.358 91.3849C313.855 91.6809 313.325 91.9272 312.773 92.1203C311.851 92.3363 310.911 91.9499 310.014 91.6508C306.222 90.4045 302.008 90.6995 298.343 89.1582C299.545 95.9614 297.971 102.957 293.965 108.622C293.207 109.685 292.208 110.774 290.894 110.857C291.479 112.631 293.283 113.703 294.993 114.5C297.725 115.775 300.583 116.769 303.521 117.466C304.364 117.662 305.392 117.757 305.88 117.051C306.175 116.636 306.302 115.925 306.82 115.95C307.612 116.781 307.351 118.484 308.446 118.858C308.788 118.944 309.146 118.944 309.487 118.858L311.931 118.443C312.664 118.38 313.37 118.14 313.987 117.745C314.373 117.414 314.692 117.013 314.926 116.565C317.665 111.966 318.718 106.644 319.14 101.389C319.346 98.7798 319.603 96.013 319.422 93.3957C319.253 91.1523 316.338 90.4751 314.358 91.3849Z" fill="black"/>
<path d="M173.116 226.142C171.915 224.621 170.68 223.01 168.902 222.208C167.878 221.8 166.8 221.54 165.7 221.435C159.772 220.604 153.831 219.74 147.848 219.578C145.893 219.524 143.795 219.578 142.203 220.704C140.378 221.988 139.675 224.351 139.574 226.557C139.465 229.184 139.994 231.799 141.116 234.183C142.239 236.568 143.923 238.654 146.028 240.267C149.61 242.959 154.135 244.085 158.55 244.974C160.872 245.443 163.206 245.863 165.548 246.22C167.891 246.578 170.276 246.86 172.538 247.575C177.375 249.104 181.643 252.56 186.716 252.847C186.954 252.883 187.198 252.842 187.411 252.73C187.634 252.553 187.784 252.302 187.833 252.024C188.949 248.14 192.821 238.838 187.833 236.121C185.225 234.704 182.33 234.642 179.777 232.843C177.223 231.044 175.054 228.597 173.116 226.142Z" fill="#BE6F72"/>
<path d="M130.524 251.929C127.241 249.112 122.712 247.62 120.327 244.035C119.278 242.456 118.747 240.604 118.221 238.784L116.67 233.292C116.551 232.954 116.496 232.598 116.51 232.241C116.628 231.094 117.997 230.55 119.152 230.371C125.05 229.466 131.193 231.809 135.609 235.772C140.024 239.735 142.86 245.203 144.524 250.869C144.641 251.157 144.659 251.476 144.575 251.775C144.431 252.041 144.203 252.254 143.926 252.381C141.794 253.628 138.929 255.443 136.439 255.825C133.949 256.208 132.297 253.432 130.524 251.929Z" fill="#BE6F72"/>
<path d="M274.525 228.248L291.8 235.066C293.439 235.712 294.788 236.918 295.6 238.463C296.413 240.008 296.636 241.789 296.228 243.483L283.373 296.796H251.234L256.829 236.142C256.829 236.142 269.048 226.171 274.525 228.248Z" fill="#3F3D56"/>
<path d="M291.21 221.851C290.889 222.54 290.418 223.222 290.489 223.973C290.531 224.422 289.534 225.555 289.5 226C289.433 226.872 286.885 226.992 286 227C285.115 227.008 285.372 227.35 284.5 227.5C283.067 227.741 282.239 228.748 281 229.5C279.273 230.547 278.587 229.81 276.573 229.989C272.359 230.363 268.374 231.921 264.561 233.695C261.969 234.9 259.218 236.445 258.241 239.096C256.838 242.835 259.559 246.773 260.162 250.728C260.323 252.06 260.363 253.403 260.28 254.741C259.838 268.708 259.075 282.838 258.266 296.788L103.824 296.967L111.429 283.826C118.844 271.01 126.458 257.953 137.644 248.152C139.303 246.675 141.167 245.439 143.18 244.48L152.15 252.373C152.868 253.077 153.701 253.657 154.615 254.089C156.3 254.766 158.188 254.38 159.995 254.438C163.471 254.55 166.648 256.299 169.665 258.007C171.877 259.191 174.006 260.522 176.035 261.991C177.223 262.888 178.938 263.449 180.177 264.276L179.886 249.361C179.857 248.015 179.836 246.636 180.244 245.352C181.036 242.86 183.299 241.098 184.386 238.726C184.879 237.658 185.119 236.495 185.532 235.402C186.116 233.998 186.841 232.655 187.698 231.393L193.289 222.536C194.671 220.351 196.048 218.166 197.548 216.059C204.108 206.832 212.939 199.442 221.53 192.026C221.331 189.913 221.826 187.792 222.942 185.977C223.382 185.373 223.747 184.719 224.029 184.029C224.211 183.211 224.263 182.37 224.185 181.536C224.185 181.324 224.185 181.121 224.185 180.896C224.278 179.538 224.854 178.255 225.811 177.274C226.797 176.264 228.116 175.649 229.413 175.076C236.129 172.114 243.112 169.781 250.269 168.105C251.411 167.839 252.62 167.59 253.745 167.926C254.086 169.01 255.249 169.393 256.412 169.667L257.158 169.837C259.133 170.258 260.975 171.144 262.526 172.421C264.156 173.825 265.277 175.703 266.368 177.552C274.571 191.44 278.351 209.661 291.041 219.753C291.656 220.23 291.53 221.186 291.21 221.851Z" fill="#7a34ea"/>
<path opacity="0.1" d="M342.962 51.2698C338.521 60.8956 329.77 70.3801 318.343 70.3801C317.41 70.3807 316.478 70.3349 315.55 70.243C315.152 69.7271 314.709 69.2462 314.227 68.8056C312.31 67.0524 309.592 66.5996 307.709 65.0666C308.855 63.0808 311.4 61.2778 313.131 59.7614C315.002 58.1301 316.943 56.5833 318.954 55.1209C322.974 52.1939 327.254 49.6313 331.742 47.4643C334.59 46.0892 337.564 44.8595 340.707 44.4399C341.103 44.352 341.517 44.3883 341.891 44.5438C342.38 44.8096 342.557 45.4079 342.675 45.9438C343.261 48.6026 342.473 48.5694 342.962 51.2698Z" fill="black"/>
<path d="M318.343 69.5451C333.934 69.5451 346.572 57.0831 346.572 41.7105C346.572 26.3378 333.934 13.8758 318.343 13.8758C302.753 13.8758 290.114 26.3378 290.114 41.7105C290.114 57.0831 302.753 69.5451 318.343 69.5451Z" fill="#FBBEBE"/>
<path d="M377.131 134.284C376.672 137.649 375.87 140.96 374.738 144.167C374.317 145.334 373.799 146.473 373.264 147.594C370.125 154.154 368.401 161.246 367.58 168.458C367.517 169.026 367.411 169.588 367.264 170.14C366.644 172.467 365.338 174.544 364.34 176.733C363.321 179.098 362.477 181.532 361.812 184.016C361.571 184.639 361.49 185.311 361.576 185.973C361.732 186.675 362.246 187.219 362.608 187.855C364.479 191.033 362.317 194.917 361.589 198.515C361.34 199.761 361.23 201.116 360.409 202.088C359.709 202.919 358.622 203.301 357.59 203.65C342.877 208.582 327.818 212.448 312.533 215.216C310.254 215.631 307.899 216.018 305.636 215.602C303.373 215.187 301.119 213.808 300.344 211.656C299.898 210.409 299.973 209.055 300.011 207.734C300.096 204.959 300.011 202.167 299.86 199.371C299.371 190.169 298.263 180.934 300.702 172.118C301.431 169.517 302.459 167.008 303.285 164.436C304.899 159.422 305.316 154.237 305.72 149.036C306.053 144.749 306.378 140.445 307.351 136.215C308.076 133.062 307.595 129.784 307.553 126.552C307.47 119.156 309.674 111.91 313.873 105.78C314.602 104.721 315.402 103.674 315.786 102.456C316.325 100.712 315.954 98.838 315.71 97.0266C315.095 92.4084 315.343 87.7181 316.443 83.1882C316.789 81.4933 317.447 79.8753 318.385 78.4148C319.435 76.9067 320.939 75.7684 322.443 74.6966C331.175 68.4891 340.811 63.6217 351.022 60.26C351.961 62.6031 352.863 65.3408 353.583 67.7379C353.68 68.062 353.748 68.4733 353.478 68.681C353.208 68.8887 352.93 68.7765 352.635 68.7848C352.331 68.8174 352.044 68.94 351.811 69.1364C351.579 69.3329 351.412 69.5942 351.333 69.8858C351.186 70.4741 351.242 71.0941 351.493 71.6472C352.066 73.1013 353.301 74.1856 354.489 75.2117L360.464 80.3508C361.179 81.0106 361.959 81.598 362.793 82.1039C363.543 82.5194 364.361 82.8143 365.132 83.1966C368.224 84.7378 370.361 87.7415 371.553 90.9487C372.745 94.1559 372.206 98.0112 373.761 101.056C378.926 111.152 378.884 123.096 377.131 134.284Z" fill="#E8E8F0"/>
<path d="M373.205 239.914C375.02 247.129 374.975 254.677 373.074 261.87C372.733 263.154 372.332 264.483 372.602 265.784C372.758 266.523 373.124 267.217 373.209 267.969C373.246 268.655 373.17 269.342 372.985 270.005C371.115 278.729 371.785 287.794 372.539 296.697C372.219 296.697 372.118 296.842 371.78 296.842H363.661C363.518 294.503 360.569 292.75 359.128 290.885C357.734 289.056 356.77 286.945 356.306 284.704C355.842 282.463 355.889 280.148 356.444 277.927C357.708 272.942 361.433 268.958 363.341 264.192C365.448 258.95 365.267 253.013 367.504 247.828C368.789 244.833 371.191 242.494 373.205 239.914Z" fill="#3F3D56"/>
<path opacity="0.1" d="M373.205 239.914C375.02 247.129 374.975 254.677 373.074 261.87C372.733 263.154 372.332 264.483 372.602 265.784C372.758 266.523 373.124 267.217 373.209 267.969C373.246 268.655 373.17 269.342 372.985 270.005C371.115 278.729 371.785 287.794 372.539 296.697C372.219 296.697 372.118 296.842 371.78 296.842H363.661C363.518 294.503 360.569 292.75 359.128 290.885C357.734 289.056 356.77 286.945 356.306 284.704C355.842 282.463 355.889 280.148 356.444 277.927C357.708 272.942 361.433 268.958 363.341 264.192C365.448 258.95 365.267 253.013 367.504 247.828C368.789 244.833 371.191 242.494 373.205 239.914Z" fill="black"/>
<path d="M356.166 199.928C349.265 198.839 342.578 202.267 335.913 204.348C325.729 207.526 314.518 207.721 305.109 212.711C304.269 213.11 303.507 213.653 302.86 214.314C302.096 215.247 301.615 216.373 301.473 217.563C301.053 220.195 301.569 222.888 302.935 225.187C303.521 226.167 304.258 227.069 304.713 228.12C305.792 230.612 305.071 233.487 304.886 236.212C304.465 242.299 306.858 248.223 307.338 254.305C307.625 257.89 307.25 261.554 308.105 265.052C308.64 267.246 309.647 269.315 310.064 271.533C310.481 273.752 310.3 275.92 310.439 278.114C310.831 284.4 313.734 290.507 313.026 296.767L367.799 296.946C365.768 289.979 364.079 282.775 365.92 275.758C366.559 273.54 367.353 271.367 368.296 269.257C371.359 261.957 374.506 254.637 376.196 246.918C377.886 239.199 378.037 230.957 375.176 223.579C371.991 215.353 365.22 208.511 363.746 199.828C361.218 199.496 358.698 200.326 356.166 199.928Z" fill="#3F3D56"/>
<path d="M298.684 28.1338C298.153 27.037 296.649 26.3141 295.638 27.0079C294.627 27.7017 294.757 29.2513 294.509 30.4977C294.028 32.9488 291.559 34.6188 289.031 35.0094C287.847 35.1963 286.529 35.1215 285.61 34.3654C285.019 33.8067 284.583 33.107 284.346 32.3339C281.818 25.6868 283.356 17.9264 287.494 12.1268C288.371 10.8272 289.46 9.67906 290.717 8.72846C294.201 6.2358 298.861 6.2358 303.171 6.36874C304.046 6.46231 304.932 6.36153 305.762 6.07378C306.395 5.74529 306.975 5.32519 307.481 4.82745C311.564 1.28788 317.206 -0.199407 322.649 0.0373955C328.093 0.274198 333.33 2.11461 338.167 4.56157C340.48 5.72896 342.747 7.05422 344.558 8.89879C348.911 13.3149 349.972 19.8582 350.828 25.9569C351.746 32.5375 352.66 39.3009 351.114 45.7693C350.238 49.4335 348.586 53.0146 348.78 56.7744C345.28 57.7599 341.724 58.5354 338.129 59.0967C336.444 59.3585 334.497 59.5122 333.262 58.3365C332.74 57.7846 332.359 57.1182 332.15 56.3922C330.815 52.4995 331.261 48.0543 329.243 44.4565C328.399 42.9896 327.193 41.7567 325.737 40.8721C324.281 39.9875 322.622 39.4799 320.913 39.3964C319.59 39.3507 318.086 39.6706 317.408 40.7882C317.148 41.3363 316.947 41.9101 316.81 42.4998C315.874 45.2791 312.044 46.6542 309.521 45.1046C308.257 44.3236 307.393 43.0274 306.251 42.0553C304.802 40.8297 302.944 40.1982 301.317 39.2095C295.899 35.8984 300.782 32.4752 298.684 28.1338Z" fill="#3F3D56"/>
<path d="M256.429 169.671C254.124 170.398 252.026 171.715 249.785 172.641C245.837 174.266 241.497 174.644 237.356 175.682C233.376 176.735 229.541 178.258 225.933 180.219C225.668 180.36 224.834 181.05 224.168 181.524C224.168 181.312 224.168 181.108 224.168 180.884C224.261 179.525 224.837 178.243 225.794 177.261C226.78 176.252 228.099 175.637 229.397 175.063C236.118 172.105 243.106 169.776 250.269 168.105C251.411 167.839 252.62 167.59 253.745 167.926C254.103 169.01 255.266 169.393 256.429 169.671Z" fill="#3F3D56"/>
<path opacity="0.1" d="M196.697 276.211C201.231 281.197 205.297 286.639 210.572 290.843C204.483 282.871 195.749 277.549 187.854 271.538C186.253 270.316 183.05 268.584 182.081 266.818C180.552 264.051 183.931 266.016 185.334 266.768C189.716 269.115 193.39 272.58 196.697 276.211Z" fill="black"/>
<path opacity="0.1" d="M359.815 130.69C359.6 132.485 358.921 134.188 358.235 135.858C356.549 140.012 354.742 144.125 352.197 147.81C350.444 150.349 348.359 152.642 346.53 155.122C344.653 157.755 342.931 160.491 341.373 163.319C338.5 168.337 335.699 173.397 332.972 178.499C331.67 180.942 330.376 183.405 328.695 185.611C327.516 187.1 326.249 188.521 324.903 189.866C321.954 192.932 318.925 195.765 316.287 199.088C314.981 200.75 312.803 201.39 310.768 201.955C310.087 202.178 309.378 202.304 308.661 202.329C307.94 202.279 307.23 202.124 306.554 201.868C304.282 201.184 302.058 200.351 299.897 199.375C299.409 190.173 298.301 180.938 300.74 172.122C301.469 169.521 302.497 167.012 303.323 164.441C304.937 159.426 305.354 154.241 305.758 149.04C306.26 147.997 306.795 146.963 307.313 145.957C310.827 139.111 313.789 131.571 312.874 123.939C312.642 122.563 312.48 121.177 312.39 119.785C312.399 118.078 312.69 116.384 313.254 114.77C314.515 110.958 316.599 107.462 319.363 104.521C322.127 101.58 325.505 99.2659 329.264 97.737C330.451 97.1901 331.746 96.9064 333.056 96.9062C334.741 96.9934 336.355 97.8575 337.998 97.5418C343.564 99.9555 348.068 104.077 351.434 109.07C354.801 114.064 354.986 120.736 358.648 125.522C359.73 126.976 360.025 128.899 359.815 130.69Z" fill="black"/>
<path opacity="0.1" d="M259.606 153.784C258.717 155.268 257.356 156.555 255.666 156.992C253.56 157.528 251.108 156.489 250.189 154.545C249.625 153.34 249.65 151.961 249.62 150.635C249.574 148.04 249.292 145.454 248.778 142.908C248.517 141.633 248.167 140.307 247.286 139.344C246.149 138.097 244.337 137.682 242.652 137.653C240.68 137.628 238.518 138.155 237.368 139.73C236.445 141.001 236.285 142.788 235.059 143.781C234.514 144.193 233.867 144.453 233.184 144.533C231.793 144.703 230.385 144.41 229.183 143.698C227.982 142.986 227.057 141.898 226.557 140.607C226.169 139.51 225.98 138.147 224.926 137.632C224.379 137.362 223.726 137.412 223.14 137.237C221.345 136.701 220.873 134.458 220.709 132.618C220.519 130.461 221.248 126.203 218.531 126.058C215.623 125.9 212.249 127.566 209.556 128.451C207.829 129.136 205.798 129.926 204.21 128.966C203.042 128.255 202.562 126.781 202.634 125.43C202.705 124.08 203.228 122.801 203.641 121.513C204.349 119.336 204.774 117.076 205.423 114.866C205.118 115.491 204.846 116.132 204.61 116.785C203.674 119.407 203.236 122.186 202.377 124.82C201.955 126.108 201.441 127.387 201.37 128.737C201.298 130.088 201.791 131.562 202.946 132.273C204.534 133.232 206.565 132.443 208.292 131.758C210.985 130.873 214.359 129.207 217.267 129.365C219.984 129.51 219.255 133.768 219.445 135.925C219.609 137.765 220.081 140.008 221.876 140.544C222.462 140.719 223.115 140.669 223.662 140.939C224.716 141.454 224.926 142.817 225.293 143.914C225.793 145.205 226.718 146.293 227.919 147.005C229.121 147.716 230.53 148.01 231.92 147.839C232.603 147.76 233.25 147.5 233.795 147.088C235.021 146.095 235.181 144.308 236.104 143.037C237.254 141.454 239.416 140.926 241.388 140.96C243.073 140.985 244.906 141.4 246.022 142.651C246.903 143.614 247.253 144.94 247.514 146.215C248.028 148.761 248.31 151.347 248.356 153.942C248.386 155.268 248.356 156.647 248.925 157.852C249.839 159.796 252.296 160.834 254.402 160.299C256.088 159.862 257.453 158.574 258.342 157.091C259.019 155.88 259.54 154.591 259.892 153.253C259.8 153.444 259.707 153.614 259.606 153.784Z" fill="black"/>
<path d="M281.279 151.026C277.908 147.835 274.862 144.304 271.837 140.781C268.938 137.412 266.031 134.026 263.697 130.258C262.252 127.927 260.963 125.385 258.742 123.752C257.057 122.506 254.997 121.924 253.134 120.973C251.795 120.287 250.56 119.419 249.237 118.709C246.351 117.17 243.103 116.415 239.825 116.519C238.464 116.565 236.917 116.876 236.218 118.031C235.978 118.426 235.864 118.887 235.62 119.278C234.866 120.524 233.05 120.877 232.43 122.186C231.385 124.388 234.537 126.411 234.735 128.833C234.828 130.046 234.149 131.176 233.951 132.377C233.614 134.454 234.705 136.436 235.759 138.247C238.013 142.127 240.756 146.377 245.184 147.353C246.751 147.698 248.407 147.586 249.936 148.076C251.169 148.537 252.31 149.208 253.307 150.058C257.468 153.291 261.134 157.098 264.194 161.362C265.618 163.344 266.908 165.413 268.344 167.382C272.917 173.62 278.918 178.707 285.859 182.23L291.029 166.028C291.825 163.535 292.453 160.116 290.186 158.171C287.346 155.65 284.073 153.66 281.279 151.026Z" fill="#FBBEBE"/>
<path d="M337.556 95.4812C335.913 95.7928 334.282 94.9328 332.614 94.8456C331.303 94.845 330.009 95.1287 328.822 95.6765C325.063 97.2063 321.686 99.5212 318.922 102.462C316.158 105.402 314.073 108.898 312.811 112.71C312.253 114.33 311.966 116.029 311.96 117.741C311.985 119.132 312.28 120.503 312.445 121.895C313.359 129.514 310.397 137.059 306.887 143.914C304.945 147.698 302.754 151.691 303.213 155.907C303.272 156.472 303.365 157.108 303.015 157.569C302.594 158.117 301.684 158.147 301.292 158.724C300.9 159.302 301.258 160.174 300.947 160.826C300.525 161.748 299.152 161.636 298.17 161.308C295.479 160.41 292.987 159.014 290.826 157.195C287.325 159.21 283.579 161.611 282.429 165.442C282.159 166.419 281.972 167.417 281.869 168.425L280.061 183.297C279.821 185.267 279.703 187.577 281.212 188.889C283.811 191.158 288.442 188.22 291.222 190.273C291.934 190.796 292.398 191.577 292.908 192.288C295.945 196.396 301.174 198.204 306.078 199.766C306.754 200.019 307.464 200.173 308.185 200.223C308.902 200.203 309.612 200.077 310.292 199.849C312.331 199.284 314.505 198.627 315.811 196.986C318.453 193.663 321.482 190.829 324.431 187.763C325.775 186.417 327.041 184.996 328.223 183.509C329.909 181.299 331.198 178.836 332.5 176.393C335.222 171.291 338.019 166.231 340.893 161.213C342.467 158.397 344.204 155.672 346.096 153.053C347.929 150.561 350.01 148.276 351.763 145.741C354.291 142.052 356.107 137.923 357.801 133.789C358.487 132.127 359.166 130.412 359.385 128.621C359.604 126.831 359.309 124.907 358.205 123.465C354.544 118.675 354.363 112.008 350.996 107.014C347.63 102.02 343.126 97.8908 337.556 95.4812Z" fill="#E8E8F0"/>
<path d="M238.106 109.847C238.007 109.909 237.924 109.991 237.861 110.088C237.799 110.185 237.758 110.294 237.743 110.408C237.743 110.616 237.916 110.778 238.009 110.965C238.266 111.497 237.853 112.111 237.381 112.477C236.909 112.843 236.336 113.125 236.079 113.661C236.039 113.732 236.022 113.813 236.028 113.894C236.057 114.003 236.122 114.1 236.214 114.168C236.491 114.482 236.851 114.715 237.254 114.841C237.899 114.974 238.518 114.554 239.066 114.209C239.66 113.839 240.293 113.532 240.954 113.295C241.158 113.236 241.351 113.142 241.523 113.017C241.733 112.81 241.863 112.536 241.889 112.244C242.032 111.202 241.468 110.2 240.823 109.336C240.048 108.318 238.767 109.286 238.106 109.847Z" fill="#3F3D56"/>
<path d="M126.092 223.365C126.207 223.142 126.024 222.822 125.682 222.65C125.34 222.478 124.969 222.519 124.854 222.742C124.738 222.965 124.922 223.285 125.264 223.457C125.606 223.629 125.977 223.588 126.092 223.365Z" fill="#E6E8EC"/>
<g opacity="0.1">
<path d="M351.106 42.8446C350.229 46.5088 348.578 50.0899 348.772 53.8497C345.272 54.8352 341.715 55.6107 338.12 56.172C336.435 56.4337 334.489 56.5875 333.254 55.4118C332.732 54.8599 332.351 54.1935 332.142 53.4675C330.806 49.5748 331.253 45.1295 329.235 41.5318C328.391 40.0649 327.185 38.8319 325.729 37.9473C324.272 37.0627 322.613 36.5552 320.905 36.4717C319.582 36.426 318.078 36.7459 317.4 37.8635C317.139 38.4116 316.939 38.9853 316.801 39.5751C315.866 42.3544 312.036 43.7295 309.512 42.1799C308.248 41.3989 307.385 40.1027 306.243 39.1306C304.793 37.905 302.935 37.2735 301.309 36.2848C299.843 35.3957 299.139 34.4984 298.84 33.5719C298.469 35.5702 298.364 37.4065 301.309 39.1929C302.935 40.1816 304.793 40.8131 306.243 42.0387C307.385 43.0025 308.231 44.307 309.512 45.088C312.04 46.6293 315.866 45.2625 316.801 42.4832C316.939 41.8934 317.139 41.3197 317.4 40.7716C318.078 39.654 319.582 39.3341 320.905 39.3798C322.613 39.4633 324.272 39.9708 325.729 40.8554C327.185 41.74 328.391 42.973 329.235 44.4399C331.253 48.0376 330.806 52.4829 332.142 56.3756C332.354 57.1076 332.741 57.7787 333.271 58.3323C334.505 59.4956 336.456 59.3543 338.137 59.0926C341.732 58.5313 345.289 57.7557 348.788 56.7703C348.582 53.0105 350.246 49.4294 351.123 45.7652C351.798 42.7668 352.068 39.6937 351.927 36.6254C351.86 38.72 351.585 40.803 351.106 42.8446Z" fill="black"/>
<path d="M299.093 29.297C299.401 27.9306 299.253 26.5025 298.672 25.2257C298.141 24.1289 296.637 23.406 295.625 24.0998C294.614 24.7936 294.757 26.3432 294.509 27.5896C294.028 30.0407 291.559 31.7107 289.032 32.1013C287.848 32.2882 286.529 32.2134 285.61 31.4573C285.019 30.8986 284.583 30.1989 284.346 29.4258C283.699 27.698 283.306 25.8876 283.179 24.05C282.965 26.8617 283.363 29.6861 284.346 32.3339C284.583 33.107 285.019 33.8067 285.61 34.3654C286.529 35.1215 287.848 35.1963 289.032 35.0094C291.53 34.6188 294.012 32.9321 294.509 30.4976C294.749 29.2513 294.585 27.7433 295.63 27.0287C296.674 26.3141 298.158 27.0578 298.676 28.1546C298.856 28.5194 298.996 28.9025 299.093 29.297Z" fill="black"/>
</g>
</svg>
