<svg width="420" height="262" viewBox="0 0 420 262" fill="none" xmlns="http://www.w3.org/2000/svg">
<path d="M304.199 60.1512C301.431 61.3166 298.655 62.4857 296.078 64.0249C294.907 64.7212 293.783 65.4908 292.579 66.1249C291.283 66.8138 289.907 67.3343 288.541 67.8913C284.772 69.428 281.112 71.2181 277.586 73.2493C277.89 69.3096 277.314 65.0291 274.953 61.9579C274.606 61.5028 274.221 61.0785 273.8 60.6899C272.13 59.1433 269.762 58.7439 268.121 57.3915C269.119 55.6397 271.337 54.0492 272.846 52.7115C274.476 51.2725 276.167 49.9079 277.92 48.6179C281.422 46.0358 285.152 43.7752 289.062 41.8636C291.544 40.6505 294.136 39.5657 296.875 39.1956C297.22 39.118 297.58 39.15 297.906 39.2872C298.332 39.5217 298.486 40.0495 298.589 40.5222C299.1 42.8861 299.36 45.3122 299.786 47.6943C299.995 48.9186 300.278 50.129 300.634 51.3189C301.092 52.7261 301.62 54.1095 302.216 55.4638C302.88 57.025 303.541 58.5875 304.199 60.1512Z" fill="#FBBEBE"/>
<path d="M225.629 126.954C225.628 131.819 224.088 136.559 221.228 140.499C218.368 144.438 214.335 147.375 209.703 148.89C205.072 150.405 200.08 150.421 195.439 148.936C190.798 147.451 186.746 144.541 183.86 140.62C180.94 136.66 179.367 131.871 179.37 126.954C179.37 120.831 181.807 114.958 186.145 110.628C190.482 106.298 196.365 103.865 202.499 103.865C208.634 103.865 214.517 106.298 218.854 110.628C223.192 114.958 225.629 120.831 225.629 126.954Z" fill="#BE6F72"/>
<path d="M194.213 147.301C195.45 149.43 196.699 151.578 197.492 153.898C198.285 156.218 198.593 158.787 197.94 161.158C205.818 157.017 215.195 157.35 223.867 155.254C224.099 155.227 224.312 155.115 224.465 154.939C224.518 154.819 224.545 154.689 224.545 154.558C224.545 154.426 224.518 154.297 224.465 154.176C222.65 147.471 221.951 140.512 222.398 133.58L217.871 136.252C215.89 137.474 213.836 138.575 211.722 139.55C208.73 140.858 205.554 141.65 202.43 142.566C199.955 143.299 195.043 144.248 193.486 146.407C193.767 146.672 194.012 146.972 194.213 147.301Z" fill="#BE6F72"/>
<path d="M181.47 116.253C179.965 116.857 178.195 117.554 176.811 116.707C175.794 116.08 175.376 114.779 175.438 113.588C175.501 112.397 175.956 111.268 176.316 110.132C177.05 107.798 177.446 105.368 178.265 103.045C179.084 100.721 180.42 98.4818 182.542 97.254C186.448 94.9965 191.504 96.8619 195.84 95.6122C197.675 95.0881 199.272 94.0326 200.98 93.2044C202.687 92.3761 204.607 91.7385 206.45 92.1819C208.609 92.684 210.202 94.4981 212.214 95.4216C214.417 96.4331 217.053 96.3635 219.057 97.7158C220.478 98.676 221.374 100.226 222.171 101.747C224.719 106.635 226.732 111.783 228.173 117.103C228.75 119.008 229.079 120.978 229.153 122.967C229.172 125.51 228.482 128.002 227.799 130.458L226.697 134.342C226.29 135.808 225.871 137.274 225.1 138.601C224.329 139.928 223.14 141.045 221.668 141.43C219.832 141.903 217.695 140.987 216.895 139.272C216.403 138.209 216.425 136.992 216.399 135.823C216.359 133.533 216.113 131.252 215.665 129.006C215.437 127.881 215.133 126.712 214.365 125.862C213.374 124.762 211.795 124.396 210.327 124.37C208.609 124.348 206.725 124.814 205.723 126.203C204.919 127.324 204.779 128.9 203.711 129.776C203.236 130.14 202.672 130.369 202.077 130.439C200.865 130.59 199.638 130.331 198.591 129.703C197.544 129.075 196.738 128.115 196.302 126.976C195.965 126.008 195.799 124.806 194.882 124.352C194.404 124.114 193.835 124.158 193.325 124.004C191.761 123.531 191.35 121.552 191.207 119.928C191.041 118.026 191.676 114.27 189.308 114.142C186.757 114.002 183.816 115.472 181.47 116.253Z" fill="#3F3D56"/>
<path d="M187.018 141.28C186.203 141.672 185.31 142.13 184.991 142.973C184.866 143.303 184.844 143.666 184.73 144.003C184.213 145.494 182.193 145.788 181.151 146.975C180.681 147.575 180.364 148.281 180.229 149.031C179.533 151.989 179.758 155.088 180.875 157.915C181.199 158.81 181.698 159.633 182.344 160.333C184.209 162.232 187.425 162.195 189.749 160.901C192.073 159.608 193.677 157.339 195.039 155.038C195.762 153.879 196.365 152.652 196.842 151.373C197.261 150.073 197.56 148.737 197.734 147.382C198.549 142.101 199.614 136.244 199.247 130.89C198.145 130.82 196.042 130.743 195.069 131.432C193.85 132.297 194.188 134.042 193.747 135.306C192.704 138.348 189.679 139.953 187.018 141.28Z" fill="#3F3D56"/>
<path d="M187.972 141.98C186.595 142.064 184.128 140.543 182.748 140.62C181.808 138.983 180.978 137.287 180.262 135.541C180.996 134.489 182.179 134.232 183.967 135.541C185.402 136.549 187.385 140.034 187.972 141.98Z" fill="#3F3D56"/>
<path d="M208.726 84.0753C207.232 84.8632 206.307 84.8999 205.569 84.7423C204.831 84.5847 203.366 85.3177 203.366 85.3177C190.424 89.7375 189.914 91.8228 189.914 91.8228L204.897 86.5417C207.779 85.281 207.834 85.7245 207.834 85.7245C210.037 87.7914 212.842 86.3915 212.842 86.3915C212.842 86.3915 216.722 84.5591 215.58 82.7963C214.439 81.0335 210.224 83.302 208.726 84.0753ZM214.967 83.7455C214.967 83.7455 213.866 86.6773 209.904 86.2009C209.904 86.2009 207.959 85.915 208.781 84.4674C208.781 84.4674 212.819 82.7743 213.888 82.8952C214.956 83.0161 214.956 83.7601 214.956 83.7601L214.967 83.7455Z" fill="#E8E8F0"/>
<path opacity="0.1" d="M208.726 84.0753C207.232 84.8632 206.307 84.8999 205.569 84.7423C204.831 84.5847 203.366 85.3177 203.366 85.3177C190.424 89.7375 189.914 91.8228 189.914 91.8228L204.897 86.5417C207.779 85.281 207.834 85.7245 207.834 85.7245C210.037 87.7914 212.842 86.3915 212.842 86.3915C212.842 86.3915 216.722 84.5591 215.58 82.7963C214.439 81.0335 210.224 83.302 208.726 84.0753ZM214.967 83.7455C214.967 83.7455 213.866 86.6773 209.904 86.2009C209.904 86.2009 207.959 85.915 208.781 84.4674C208.781 84.4674 212.819 82.7743 213.888 82.8952C214.956 83.0161 214.956 83.7601 214.956 83.7601L214.967 83.7455Z" fill="black"/>
<path d="M209.548 75.9027C207.309 75.976 206.843 77.6471 206.843 77.6471C206.394 78.1812 206.132 78.8461 206.094 79.5419C206.056 80.2377 206.245 80.9269 206.633 81.5062L202.657 85.4533C201.904 85.7434 201.256 86.2545 200.8 86.9192C200.8 86.9192 192.069 94.6154 192.198 95.3154C192.198 95.3154 193.622 96.0483 202.657 87.8281L205.029 85.7318C205.029 85.7318 205.554 81.8141 209.258 81.0701C209.258 81.0701 209.625 81.2313 209.82 80.3591C210.028 79.9408 210.305 79.5605 210.639 79.234C211.131 78.7796 211.788 75.8257 209.548 75.9027ZM210.176 78.5523C210.176 78.5523 208.976 81.6455 207.265 80.7512C205.554 79.857 207.217 77.7937 207.217 77.7937C210.184 74.9131 210.176 78.5523 210.176 78.5523Z" fill="#E8E8F0"/>
<path opacity="0.1" d="M202.734 86.9925C202.996 86.9925 203.208 86.7809 203.208 86.5198C203.208 86.2587 202.996 86.047 202.734 86.047C202.473 86.047 202.261 86.2587 202.261 86.5198C202.261 86.7809 202.473 86.9925 202.734 86.9925Z" fill="black"/>
<path d="M244.165 71.5708C242.783 70.8441 241.349 70.2217 239.874 69.7091C237.913 69.154 235.898 68.81 233.864 68.6829C227.436 68.0721 220.989 67.7178 214.523 67.6201C213.381 67.6201 212.214 67.5944 211.131 67.9866C210.163 68.3572 209.287 68.9308 208.561 69.6687C207.303 70.8693 206.303 72.3133 205.624 73.9126C205.405 74.3134 205.34 74.7796 205.44 75.2247C205.587 75.6498 206.174 75.932 206.509 75.6314C205.654 76.319 205.026 77.2472 204.707 78.2955C204.387 79.3437 204.391 80.4637 204.717 81.5099C204.207 81.7759 203.775 82.1686 203.462 82.6501C203.149 83.1316 202.965 83.6856 202.929 84.2585C205.598 84.7518 208.346 84.6188 210.954 83.87C210.176 83.6721 209.372 84.4014 209.324 85.2004C209.33 85.6017 209.446 85.9939 209.66 86.3334C209.875 86.673 210.179 86.9467 210.54 87.1244C211.268 87.4684 212.07 87.627 212.875 87.5862C215.984 87.5862 219.009 86.5344 222.112 86.3988C224.483 86.2925 226.928 86.7213 229.194 86.0323C231.822 85.2187 234.168 82.9135 236.878 83.3936C239.04 83.7784 240.45 85.7831 241.86 87.4616C244.114 90.1406 246.9 92.3102 249.665 94.4614C251.794 96.1179 254.019 97.8184 256.659 98.3792C257.449 98.5941 258.287 98.5543 259.053 98.2656C259.693 97.9236 260.23 97.4176 260.609 96.7996C263.454 92.7683 263.458 87.6925 263.293 82.9685C263.208 80.5533 262.68 80.2272 260.44 79.2267C257.841 78.0612 255.252 76.8677 252.672 75.6461C249.823 74.317 246.987 72.9586 244.165 71.5708Z" fill="#FBBEBE"/>
<path d="M273.921 80.6157C273.484 80.8767 273.021 81.094 272.541 81.2643C271.737 81.4549 270.918 81.1141 270.136 80.8502C266.832 79.7508 263.161 80.011 259.967 78.6513C261.014 84.6528 259.643 90.8243 256.152 95.8211C255.491 96.7593 254.621 97.7195 253.476 97.7928C253.986 99.3577 255.557 100.303 257.048 101.007C259.428 102.131 261.918 103.008 264.479 103.624C265.213 103.796 266.109 103.88 266.535 103.257C266.792 102.891 266.902 102.264 267.353 102.286C268.044 103.019 267.816 104.521 268.771 104.851C269.068 104.927 269.38 104.927 269.677 104.851L271.807 104.485C272.446 104.43 273.061 104.218 273.598 103.869C273.935 103.577 274.213 103.224 274.417 102.828C276.803 98.7713 277.721 94.0767 278.088 89.4406C278.268 87.1391 278.492 84.6983 278.334 82.3894C278.188 80.4104 275.647 79.8131 273.921 80.6157Z" fill="#E8E8F0"/>
<path opacity="0.1" d="M273.921 80.6157C273.484 80.8767 273.021 81.094 272.541 81.2643C271.737 81.4549 270.918 81.1141 270.136 80.8502C266.832 79.7508 263.161 80.011 259.967 78.6513C261.014 84.6528 259.643 90.8243 256.152 95.8211C255.491 96.7593 254.621 97.7195 253.476 97.7928C253.986 99.3577 255.557 100.303 257.048 101.007C259.428 102.131 261.918 103.008 264.479 103.624C265.213 103.796 266.109 103.88 266.535 103.257C266.792 102.891 266.902 102.264 267.353 102.286C268.044 103.019 267.816 104.521 268.771 104.851C269.068 104.927 269.38 104.927 269.677 104.851L271.807 104.485C272.446 104.43 273.061 104.218 273.598 103.869C273.935 103.577 274.213 103.224 274.417 102.828C276.803 98.7713 277.721 94.0767 278.088 89.4406C278.268 87.1391 278.492 84.6983 278.334 82.3894C278.188 80.4104 275.647 79.8131 273.921 80.6157Z" fill="black"/>
<path d="M150.848 199.492C149.801 198.151 148.726 196.729 147.176 196.022C146.284 195.662 145.344 195.433 144.386 195.34C139.22 194.607 134.044 193.845 128.831 193.702C127.127 193.654 125.299 193.702 123.911 194.695C122.321 195.827 121.708 197.913 121.62 199.859C121.525 202.176 121.986 204.482 122.964 206.586C123.943 208.69 125.41 210.53 127.245 211.953C130.365 214.328 134.308 215.321 138.156 216.105C140.179 216.519 142.213 216.889 144.254 217.205C146.295 217.52 148.373 217.769 150.345 218.399C154.559 219.748 158.278 222.797 162.699 223.05C162.906 223.082 163.119 223.046 163.304 222.947C163.498 222.791 163.629 222.57 163.671 222.324C164.644 218.898 168.018 210.692 163.671 208.295C161.399 207.046 158.877 206.991 156.652 205.404C154.427 203.817 152.536 201.658 150.848 199.492Z" fill="#BE6F72"/>
<path d="M113.734 222.24C110.874 219.755 106.927 218.44 104.85 215.277C103.935 213.884 103.473 212.25 103.014 210.644L101.663 205.8C101.559 205.502 101.511 205.187 101.523 204.872C101.626 203.861 102.819 203.381 103.825 203.223C108.965 202.424 114.318 204.491 118.165 207.987C122.013 211.484 124.484 216.307 125.934 221.306C126.036 221.56 126.051 221.841 125.978 222.104C125.852 222.339 125.654 222.527 125.413 222.64C123.555 223.739 121.058 225.341 118.889 225.678C116.719 226.015 115.28 223.567 113.734 222.24Z" fill="#BE6F72"/>
<path d="M239.213 201.35L254.265 207.364C255.693 207.935 256.869 208.998 257.577 210.361C258.285 211.724 258.479 213.296 258.124 214.789L246.923 261.82H218.918L223.793 208.314C223.793 208.314 234.44 199.518 239.213 201.35Z" fill="#3F3D56"/>
<path d="M253.751 195.707C253.472 196.315 253.061 196.916 253.124 197.579C253.16 197.975 253.366 198.349 253.336 198.741C253.278 199.511 252.386 199.939 251.615 199.947C250.844 199.954 250.069 199.705 249.309 199.837C248.061 200.049 247.216 201.196 246.137 201.86C244.632 202.783 242.752 202.728 240.997 202.886C237.326 203.216 233.853 204.59 230.53 206.155C228.272 207.218 225.875 208.581 225.023 210.919C223.801 214.218 226.172 217.692 226.697 221.181C226.838 222.356 226.872 223.54 226.8 224.721C226.415 237.042 225.75 249.507 225.045 261.813L90.469 261.971L97.0957 250.379C103.557 239.073 110.191 227.554 119.939 218.909C121.385 217.606 123.009 216.515 124.763 215.669L132.579 222.632C133.205 223.253 133.931 223.765 134.727 224.146C136.195 224.743 137.84 224.402 139.415 224.454C142.444 224.553 145.212 226.095 147.841 227.602C149.769 228.646 151.624 229.82 153.392 231.116C154.427 231.908 155.921 232.403 157.001 233.132L156.747 219.975C156.722 218.788 156.703 217.571 157.06 216.439C157.75 214.24 159.721 212.686 160.668 210.593C161.098 209.651 161.307 208.625 161.667 207.661C162.176 206.422 162.808 205.237 163.554 204.125L168.426 196.311C169.63 194.384 170.831 192.456 172.138 190.598C177.854 182.458 185.549 175.938 193.035 169.397C192.861 167.532 193.292 165.662 194.265 164.061C194.648 163.528 194.966 162.95 195.212 162.342C195.37 161.62 195.416 160.878 195.348 160.143C195.348 159.956 195.348 159.776 195.348 159.578C195.429 158.38 195.931 157.249 196.765 156.383C197.624 155.492 198.773 154.95 199.904 154.444C205.756 151.832 211.84 149.773 218.077 148.294C219.072 148.06 220.126 147.84 221.106 148.137C221.403 149.093 222.417 149.431 223.43 149.672L224.08 149.823C225.8 150.194 227.406 150.976 228.757 152.102C230.178 153.341 231.154 154.997 232.105 156.628C239.253 168.88 242.546 184.954 253.604 193.856C254.14 194.277 254.03 195.12 253.751 195.707Z" fill="#7832EA"/>
<path opacity="0.1" d="M298.846 45.2279C294.977 53.7193 287.351 62.0862 277.395 62.0862C276.582 62.0867 275.769 62.0463 274.961 61.9653C274.614 61.5101 274.228 61.0858 273.808 60.6972C272.137 59.1506 269.769 58.7512 268.128 57.3989C269.127 55.6471 271.344 54.0565 272.853 52.7188C274.483 51.2798 276.175 49.9152 277.927 48.6252C281.43 46.0431 285.159 43.7825 289.069 41.8709C291.551 40.6578 294.143 39.573 296.882 39.2029C297.227 39.1253 297.588 39.1573 297.914 39.2945C298.34 39.529 298.494 40.0568 298.597 40.5296C299.107 42.8751 298.42 42.8457 298.846 45.2279Z" fill="black"/>
<path d="M277.395 61.3496C290.98 61.3496 301.992 50.3562 301.992 36.7951C301.992 23.234 290.98 12.2406 277.395 12.2406C263.809 12.2406 252.797 23.234 252.797 36.7951C252.797 50.3562 263.809 61.3496 277.395 61.3496Z" fill="#FBBEBE"/>
<path d="M328.621 118.459C328.22 121.428 327.522 124.349 326.535 127.178C326.168 128.207 325.717 129.212 325.25 130.201C322.515 135.988 321.014 142.244 320.298 148.606C320.243 149.107 320.151 149.603 320.022 150.09C319.483 152.142 318.345 153.975 317.474 155.906C316.587 157.992 315.851 160.139 315.272 162.331C315.062 162.881 314.992 163.473 315.066 164.057C315.202 164.676 315.65 165.156 315.966 165.717C317.596 168.521 315.712 171.947 315.077 175.121C314.86 176.221 314.765 177.415 314.049 178.273C313.44 179.006 312.492 179.343 311.593 179.651C298.772 184.002 285.65 187.412 272.332 189.854C270.346 190.22 268.293 190.561 266.322 190.195C264.35 189.828 262.386 188.611 261.711 186.713C261.321 185.614 261.388 184.419 261.421 183.253C261.494 180.805 261.421 178.342 261.288 175.876C260.863 167.758 259.897 159.611 262.023 151.835C262.658 149.54 263.554 147.327 264.273 145.058C265.679 140.635 266.043 136.061 266.395 131.473C266.685 127.691 266.968 123.894 267.816 120.163C268.447 117.381 268.029 114.49 267.992 111.639C267.92 105.114 269.841 98.7217 273.499 93.3144C274.134 92.3798 274.832 91.4563 275.166 90.3825C275.636 88.8433 275.313 87.1904 275.1 85.5925C274.564 81.5185 274.78 77.381 275.739 73.3849C276.04 71.8897 276.614 70.4624 277.431 69.174C278.345 67.8437 279.656 66.8395 280.967 65.894C288.576 60.418 296.972 56.1242 305.869 53.1586C306.688 55.2256 307.474 57.6407 308.102 59.7554C308.186 60.0412 308.245 60.404 308.01 60.5873C307.775 60.7705 307.532 60.6716 307.275 60.6789C307.01 60.7076 306.76 60.8157 306.558 60.9891C306.355 61.1624 306.21 61.3928 306.141 61.6501C306.013 62.1691 306.062 62.716 306.281 63.204C306.78 64.4867 307.856 65.4432 308.891 66.3484L314.097 70.8818C314.72 71.4639 315.4 71.982 316.127 72.4284C316.781 72.7949 317.493 73.0551 318.165 73.3923C320.859 74.7519 322.721 77.4016 323.76 80.2309C324.799 83.0601 324.329 86.4611 325.683 89.1474C330.185 98.053 330.148 108.589 328.621 118.459Z" fill="#E8E8F0"/>
<path d="M325.199 211.641C326.781 218.006 326.741 224.664 325.085 231.01C324.788 232.142 324.439 233.315 324.674 234.462C324.81 235.115 325.129 235.727 325.203 236.39C325.235 236.995 325.169 237.602 325.008 238.186C323.378 245.882 323.962 253.879 324.619 261.732C324.34 261.732 324.252 261.861 323.958 261.861H316.883C316.759 259.797 314.189 258.251 312.933 256.605C311.718 254.992 310.878 253.13 310.474 251.153C310.069 249.176 310.111 247.134 310.594 245.175C311.696 240.777 314.941 237.262 316.604 233.059C318.44 228.434 318.282 223.197 320.232 218.623C321.351 215.98 323.444 213.917 325.199 211.641Z" fill="#3F3D56"/>
<path opacity="0.1" d="M325.199 211.641C326.781 218.006 326.741 224.664 325.085 231.01C324.788 232.142 324.439 233.315 324.674 234.462C324.81 235.115 325.129 235.727 325.203 236.39C325.235 236.995 325.169 237.602 325.008 238.186C323.378 245.882 323.962 253.879 324.619 261.732C324.34 261.732 324.252 261.861 323.958 261.861H316.883C316.759 259.797 314.189 258.251 312.933 256.605C311.718 254.992 310.878 253.13 310.474 251.153C310.069 249.176 310.111 247.134 310.594 245.175C311.696 240.777 314.941 237.262 316.604 233.059C318.44 228.434 318.282 223.197 320.232 218.623C321.351 215.98 323.444 213.917 325.199 211.641Z" fill="black"/>
<path d="M310.352 176.367C304.338 175.407 298.512 178.43 292.704 180.267C283.83 183.07 274.061 183.242 265.863 187.644C265.131 187.996 264.467 188.475 263.902 189.059C263.237 189.881 262.818 190.875 262.695 191.924C262.328 194.246 262.778 196.622 263.968 198.649C264.479 199.514 265.121 200.31 265.518 201.237C266.458 203.436 265.83 205.972 265.668 208.376C265.301 213.745 267.386 218.971 267.805 224.336C268.055 227.499 267.728 230.732 268.473 233.817C268.939 235.752 269.817 237.577 270.18 239.535C270.544 241.492 270.386 243.405 270.507 245.34C270.849 250.885 273.378 256.272 272.761 261.795L320.489 261.952C318.719 255.806 317.247 249.452 318.851 243.262C319.408 241.304 320.1 239.388 320.922 237.526C323.591 231.087 326.333 224.63 327.806 217.82C329.278 211.011 329.41 203.74 326.917 197.231C324.142 189.975 318.242 183.939 316.957 176.279C314.754 175.986 312.558 176.719 310.352 176.367Z" fill="#3F3D56"/>
<path d="M260.264 24.8184C259.802 23.8509 258.491 23.2132 257.61 23.8252C256.729 24.4373 256.843 25.8042 256.626 26.9037C256.207 29.066 254.056 30.5392 251.853 30.8837C250.822 31.0486 249.672 30.9827 248.872 30.3157C248.357 29.8228 247.977 29.2056 247.771 28.5236C245.568 22.6598 246.908 15.8139 250.513 10.6977C251.278 9.5513 252.227 8.53847 253.322 7.69988C256.358 5.50098 260.418 5.50098 264.174 5.61825C264.937 5.7008 265.708 5.61189 266.432 5.35805C266.984 5.06827 267.488 4.69768 267.93 4.25859C271.487 1.13614 276.403 -0.175874 281.147 0.0330227C285.89 0.241919 290.454 1.86545 294.668 4.02404C296.684 5.05386 298.659 6.22295 300.238 7.85014C304.03 11.7459 304.955 17.518 305.701 22.898C306.501 28.7031 307.298 34.6695 305.95 40.3757C305.187 43.6081 303.747 46.7672 303.916 50.0839C300.867 50.9532 297.767 51.6373 294.635 52.1325C293.167 52.3634 291.47 52.499 290.395 51.4618C289.94 50.975 289.608 50.3871 289.426 49.7467C288.262 46.3127 288.651 42.3913 286.892 39.2176C286.157 37.9235 285.106 36.8359 283.837 36.0555C282.568 35.2752 281.123 34.8274 279.634 34.7538C278.481 34.7135 277.171 34.9957 276.58 35.9815C276.353 36.4651 276.178 36.9712 276.058 37.4914C275.243 39.9432 271.906 41.1563 269.707 39.7893C268.605 39.1003 267.853 37.9569 266.858 37.0993C265.595 36.0182 263.976 35.4611 262.559 34.5889C257.837 31.668 262.093 28.6482 260.264 24.8184Z" fill="#3F3D56"/>
<path d="M223.444 149.676C221.436 150.317 219.608 151.479 217.655 152.296C214.215 153.729 210.433 154.063 206.824 154.979C203.357 155.907 200.015 157.251 196.871 158.981C196.64 159.106 195.913 159.714 195.333 160.132C195.333 159.945 195.333 159.765 195.333 159.567C195.414 158.369 195.916 157.238 196.75 156.372C197.609 155.481 198.758 154.939 199.889 154.433C205.746 151.824 211.835 149.768 218.077 148.294C219.072 148.06 220.125 147.84 221.106 148.137C221.418 149.093 222.431 149.431 223.444 149.676Z" fill="#3F3D56"/>
<path opacity="0.1" d="M171.396 243.661C175.346 248.059 178.889 252.86 183.486 256.569C178.181 249.536 170.57 244.841 163.69 239.538C162.295 238.461 159.505 236.932 158.66 235.375C157.328 232.934 160.272 234.668 161.494 235.331C165.313 237.402 168.514 240.458 171.396 243.661Z" fill="black"/>
<path opacity="0.1" d="M313.531 115.289C313.344 116.872 312.753 118.375 312.155 119.848C310.686 123.513 309.111 127.141 306.894 130.392C305.366 132.631 303.549 134.654 301.956 136.842C300.32 139.164 298.82 141.578 297.462 144.073C294.958 148.5 292.518 152.963 290.141 157.464C289.007 159.619 287.88 161.792 286.415 163.738C285.387 165.052 284.284 166.305 283.111 167.491C280.541 170.196 277.901 172.695 275.603 175.627C274.465 177.093 272.567 177.657 270.793 178.156C270.2 178.353 269.582 178.464 268.958 178.485C268.329 178.442 267.71 178.305 267.122 178.079C265.142 177.475 263.204 176.741 261.321 175.88C260.895 167.762 259.93 159.615 262.056 151.838C262.691 149.544 263.587 147.331 264.306 145.062C265.712 140.639 266.076 136.065 266.428 131.476C266.865 130.557 267.331 129.644 267.783 128.757C270.845 122.717 273.426 116.066 272.629 109.333C272.426 108.12 272.285 106.897 272.207 105.669C272.214 104.163 272.469 102.669 272.959 101.245C274.058 97.8826 275.875 94.7979 278.283 92.2038C280.692 89.6097 283.635 87.568 286.911 86.2192C287.945 85.7367 289.073 85.4865 290.215 85.4863C291.683 85.5632 293.089 86.3255 294.521 86.047C299.371 88.1763 303.296 91.8118 306.229 96.2169C309.162 100.622 309.324 106.508 312.514 110.73C313.458 112.012 313.715 113.709 313.531 115.289Z" fill="black"/>
<path d="M207.379 95.3997L207.224 95.0662L201.225 97.8295L200.223 98.2912L199.225 98.7493L207.683 117.055L208.682 116.593L209.684 116.132L215.683 113.368L215.529 113.039L209.53 115.802L209.376 115.468L215.375 112.705L215.221 112.372L209.222 115.135L209.067 114.801L215.066 112.038L214.916 111.705L208.913 114.468L208.759 114.138L214.762 111.375L214.607 111.041L208.605 113.805L208.451 113.471L214.453 110.708L214.299 110.374L208.3 113.138L208.146 112.804L214.145 110.041L213.991 109.711L207.992 112.474L207.838 112.141L213.836 109.377L213.682 109.044L207.683 111.807L207.529 111.474L213.532 108.71L213.378 108.377L207.375 111.14L207.221 110.81L213.223 108.043L213.069 107.714L207.067 110.477L206.916 110.143L212.915 107.38L212.761 107.047L206.762 109.81L206.608 109.476L212.607 106.713L212.452 106.38L206.453 109.143L206.299 108.813L212.298 106.05L212.148 105.716L206.145 108.48L205.991 108.146L211.993 105.383L211.839 105.049L205.837 107.813L205.686 107.479L211.685 104.719L211.531 104.386L205.532 107.149L205.378 106.816L211.377 104.052L211.223 103.719L205.224 106.482L205.069 106.149L211.068 103.385L210.918 103.052L204.915 105.819L204.761 105.485L210.764 102.722L210.609 102.389L204.607 105.152L204.453 104.818L210.455 102.055L210.301 101.722L204.302 104.485L204.148 104.151L210.147 101.388L209.993 101.058L203.994 103.821L203.839 103.488L209.838 100.725L209.684 100.391L203.685 103.154L203.531 102.821L209.534 100.058L209.379 99.7278L203.377 102.487L203.223 102.158L209.225 99.3943L209.071 99.0608L203.068 101.824L202.918 101.491L208.917 98.7274L208.763 98.3939L202.764 101.157L202.61 100.824L208.609 98.0603L208.454 97.7305L202.455 100.494L202.301 100.16L208.3 97.397L208.15 97.0635L202.147 99.8268L201.993 99.4933L207.995 96.73L207.841 96.3965L201.839 99.1598L201.684 98.83L207.687 96.0667L207.533 95.7332L201.53 98.4965L201.38 98.163L207.379 95.3997Z" fill="black"/>
<path opacity="0.1" d="M226.213 135.662C225.438 136.97 224.252 138.106 222.78 138.491C220.944 138.964 218.808 138.047 218.007 136.332C217.515 135.27 217.537 134.053 217.512 132.884C217.471 130.594 217.225 128.313 216.777 126.067C216.55 124.942 216.245 123.773 215.478 122.923C214.486 121.823 212.908 121.457 211.439 121.431C209.721 121.409 207.838 121.874 206.835 123.263C206.031 124.385 205.892 125.961 204.824 126.837C204.349 127.2 203.784 127.43 203.19 127.5C201.978 127.651 200.75 127.392 199.703 126.764C198.656 126.136 197.851 125.176 197.415 124.037C197.077 123.069 196.912 121.867 195.994 121.413C195.517 121.175 194.948 121.218 194.437 121.065C192.873 120.592 192.462 118.613 192.319 116.989C192.154 115.087 192.789 111.331 190.421 111.202C187.888 111.063 184.947 112.533 182.601 113.313C181.096 113.918 179.326 114.614 177.942 113.768C176.925 113.141 176.507 111.84 176.569 110.649C176.631 109.458 177.087 108.329 177.446 107.193C178.063 105.273 178.434 103.279 178.999 101.329C178.734 101.881 178.497 102.446 178.291 103.023C177.476 105.335 177.094 107.787 176.345 110.11C175.978 111.246 175.53 112.375 175.468 113.566C175.405 114.757 175.835 116.058 176.841 116.685C178.225 117.532 179.994 116.835 181.5 116.231C183.846 115.45 186.786 113.98 189.32 114.12C191.688 114.248 191.052 118.004 191.218 119.906C191.361 121.53 191.772 123.509 193.336 123.982C193.846 124.136 194.415 124.092 194.893 124.33C195.81 124.784 195.994 125.986 196.313 126.954C196.749 128.093 197.555 129.053 198.602 129.681C199.649 130.309 200.876 130.568 202.088 130.417C202.683 130.347 203.247 130.118 203.722 129.754C204.791 128.878 204.93 127.302 205.734 126.181C206.736 124.784 208.62 124.319 210.338 124.348C211.806 124.37 213.403 124.737 214.376 125.84C215.144 126.69 215.448 127.859 215.676 128.984C216.124 131.23 216.37 133.511 216.41 135.801C216.436 136.97 216.41 138.187 216.906 139.25C217.703 140.965 219.843 141.881 221.679 141.408C223.147 141.023 224.337 139.887 225.111 138.579C225.701 137.511 226.155 136.373 226.462 135.193C226.382 135.361 226.301 135.511 226.213 135.662Z" fill="black"/>
<path d="M245.098 133.228C242.161 130.414 239.506 127.298 236.87 124.191C234.344 121.218 231.811 118.232 229.777 114.908C228.518 112.852 227.395 110.609 225.46 109.168C223.991 108.069 222.196 107.556 220.573 106.717C219.406 106.112 218.33 105.346 217.177 104.719C214.663 103.363 211.833 102.696 208.976 102.788C207.79 102.828 206.442 103.103 205.833 104.122C205.624 104.47 205.525 104.877 205.312 105.221C204.654 106.321 203.072 106.632 202.532 107.787C201.622 109.729 204.368 111.514 204.541 113.651C204.621 114.721 204.03 115.718 203.858 116.777C203.564 118.609 204.515 120.357 205.433 121.955C207.397 125.378 209.787 129.127 213.646 129.988C215.011 130.293 216.454 130.194 217.787 130.626C218.861 131.032 219.855 131.624 220.724 132.374C224.349 135.227 227.544 138.585 230.211 142.346C231.451 144.094 232.575 145.92 233.827 147.657C237.811 153.16 243.04 157.648 249.089 160.755L253.593 146.462C254.287 144.263 254.834 141.247 252.859 139.532C250.385 137.307 247.532 135.552 245.098 133.228Z" fill="#FBBEBE"/>
<path d="M294.136 84.2292C292.704 84.5041 291.283 83.7455 289.829 83.6685C288.687 83.668 287.559 83.9183 286.525 84.4015C283.25 85.751 280.307 87.7931 277.899 90.3871C275.49 92.9811 273.674 96.0653 272.574 99.4274C272.088 100.857 271.838 102.356 271.833 103.865C271.855 105.093 272.112 106.303 272.255 107.53C273.051 114.252 270.47 120.907 267.412 126.954C265.72 130.293 263.811 133.815 264.211 137.534C264.262 138.033 264.343 138.594 264.038 139C263.671 139.484 262.878 139.51 262.537 140.019C262.195 140.529 262.507 141.298 262.236 141.874C261.869 142.687 260.672 142.588 259.816 142.299C257.471 141.507 255.3 140.275 253.417 138.671C250.366 140.448 247.102 142.566 246.1 145.945C245.865 146.807 245.701 147.688 245.612 148.577L244.037 161.697C243.828 163.434 243.725 165.472 245.039 166.63C247.304 168.631 251.339 166.04 253.762 167.85C254.383 168.312 254.787 169.001 255.231 169.628C257.878 173.252 262.434 174.846 266.707 176.224C267.296 176.447 267.915 176.583 268.543 176.627C269.168 176.61 269.787 176.499 270.379 176.298C272.156 175.799 274.05 175.22 275.188 173.772C277.49 170.841 280.13 168.341 282.7 165.637C283.871 164.448 284.974 163.196 286.004 161.884C287.472 159.934 288.596 157.761 289.73 155.606C292.102 151.105 294.54 146.642 297.044 142.214C298.415 139.73 299.929 137.327 301.578 135.017C303.175 132.818 304.988 130.802 306.516 128.567C308.718 125.312 310.301 121.669 311.777 118.023C312.375 116.557 312.966 115.043 313.157 113.464C313.348 111.884 313.091 110.187 312.129 108.916C308.939 104.69 308.781 98.808 305.847 94.4029C302.914 89.9977 298.989 86.3549 294.136 84.2292Z" fill="#E8E8F0"/>
<path d="M207.478 96.9022C207.392 96.9566 207.319 97.0291 207.265 97.1146C207.21 97.2001 207.175 97.2965 207.162 97.397C207.162 97.5802 207.313 97.7231 207.393 97.8881C207.617 98.3572 207.258 98.8996 206.846 99.2221C206.435 99.5446 205.936 99.7938 205.712 100.267C205.678 100.329 205.662 100.401 205.668 100.472C205.693 100.568 205.75 100.654 205.829 100.714C206.071 100.991 206.385 101.197 206.736 101.307C207.298 101.425 207.838 101.054 208.315 100.75C208.833 100.423 209.384 100.153 209.96 99.944C210.138 99.8915 210.306 99.8084 210.455 99.6985C210.639 99.5159 210.752 99.2745 210.775 99.0168C210.9 98.097 210.408 97.2137 209.846 96.4514C209.17 95.5535 208.054 96.4075 207.478 96.9022Z" fill="#3F3D56"/>
<path d="M151.152 205.511L113.043 186.094C112.765 185.952 112.425 186.063 112.283 186.34L102.571 205.335C102.429 205.612 102.539 205.952 102.817 206.094L140.926 225.511C141.204 225.652 141.545 225.542 141.687 225.265L151.399 206.27C151.541 205.992 151.43 205.652 151.152 205.511Z" fill="#3F3D56"/>
<path d="M147.644 205.999L114.767 189.248L106.425 205.563L139.302 222.314L147.644 205.999Z" fill="#E8E8F0"/>
<path d="M109.873 197.043C109.973 196.846 109.813 196.564 109.515 196.412C109.217 196.26 108.894 196.296 108.794 196.493C108.693 196.689 108.853 196.972 109.151 197.124C109.449 197.275 109.772 197.239 109.873 197.043Z" fill="#E6E8EC"/>
<path d="M145.825 215.408C145.99 215.086 145.726 214.621 145.235 214.371C144.744 214.121 144.212 214.179 144.047 214.502C143.882 214.825 144.146 215.289 144.637 215.539C145.128 215.79 145.66 215.731 145.825 215.408Z" fill="#E6E8EC"/>
<g opacity="0.1">
<path d="M305.943 37.7957C305.179 41.0281 303.74 44.1872 303.909 47.5039C300.86 48.3732 297.76 49.0573 294.628 49.5525C293.159 49.7834 291.463 49.919 290.387 48.8818C289.933 48.395 289.6 47.8071 289.418 47.1667C288.254 43.7327 288.644 39.8113 286.885 36.6376C286.15 35.3435 285.099 34.2559 283.83 33.4755C282.561 32.6952 281.115 32.2474 279.627 32.1738C278.474 32.1335 277.163 32.4157 276.572 33.4015C276.346 33.8851 276.171 34.3912 276.051 34.9114C275.236 37.3632 271.899 38.5763 269.7 37.2093C268.598 36.5203 267.845 35.3769 266.851 34.5193C265.588 33.4382 263.969 32.8811 262.551 32.0089C261.274 31.2246 260.661 30.433 260.4 29.6157C260.077 31.3785 259.985 32.9984 262.551 34.5743C263.969 35.4465 265.588 36.0036 266.851 37.0847C267.845 37.9349 268.583 39.0857 269.7 39.7747C271.902 41.1343 275.236 39.9286 276.051 37.4768C276.171 36.9566 276.346 36.4505 276.572 35.9669C277.163 34.9811 278.474 34.6989 279.627 34.7392C281.115 34.8128 282.561 35.2606 283.83 36.0409C285.099 36.8213 286.15 37.9089 286.885 39.203C288.644 42.3767 288.254 46.2981 289.418 49.7321C289.603 50.3778 289.94 50.9698 290.402 51.4582C291.478 52.4844 293.178 52.3598 294.643 52.1289C297.775 51.6337 300.874 50.9496 303.924 50.0802C303.744 46.7635 305.194 43.6044 305.958 40.3721C306.546 37.727 306.781 35.016 306.659 32.3094C306.6 34.1571 306.361 35.9947 305.943 37.7957Z" fill="black"/>
<path d="M260.62 25.8446C260.889 24.6392 260.76 23.3794 260.253 22.253C259.79 21.2855 258.48 20.6478 257.599 21.2598C256.718 21.8719 256.842 23.2389 256.626 24.3383C256.207 26.5006 254.056 27.9738 251.853 28.3183C250.821 28.4833 249.672 28.4173 248.872 27.7503C248.356 27.2574 247.977 26.6402 247.771 25.9582C247.207 24.4339 246.864 22.837 246.754 21.2159C246.567 23.6963 246.914 26.1878 247.771 28.5236C247.977 29.2056 248.356 29.8228 248.872 30.3157C249.672 30.9827 250.821 31.0486 251.853 30.8837C254.03 30.5392 256.193 29.0513 256.626 26.9037C256.835 25.8042 256.692 24.4739 257.602 23.8436C258.513 23.2132 259.805 23.8692 260.257 24.8367C260.414 25.1586 260.536 25.4965 260.62 25.8446Z" fill="black"/>
</g>
</svg>
